<svg width="71" height="54" viewBox="0 0 71 54" fill="none" xmlns="http://www.w3.org/2000/svg">
<path d="M66.5364 23.357C66.5364 23.5462 66.3637 23.6722 66.2538 23.6876L66.5528 24.1921H66.3325L66.0495 23.7034H65.8456V24.1921H65.6411V23.0098H66.144C66.3793 23.0099 66.5364 23.1679 66.5364 23.357ZM66.3321 23.373C66.3321 23.2467 66.238 23.1997 66.112 23.1997H65.8452V23.5464H66.112C66.238 23.5464 66.3321 23.4984 66.3321 23.373Z" fill="#E8B94D"/>
<path d="M65.0889 23.6035C65.0889 23.067 65.523 22.6318 66.058 22.6318C66.5937 22.6318 67.0274 23.067 67.0274 23.6035C67.0274 24.1405 66.5937 24.5758 66.058 24.5758C65.5234 24.5758 65.0889 24.1405 65.0889 23.6035ZM66.058 24.4204C66.5078 24.4204 66.8724 24.0547 66.8724 23.6035C66.8724 23.153 66.5078 22.7871 66.058 22.7871C65.6084 22.7871 65.2438 23.153 65.2438 23.6035C65.2438 24.0545 65.6084 24.4204 66.058 24.4204Z" fill="#E8B94D"/>
<path d="M25.6745 24.0469C25.6745 24.9645 24.9455 25.6953 24.0303 25.6953C23.596 25.6953 23.2392 25.3218 23.2392 24.902C23.2392 24.4974 23.4563 24.4899 23.4563 24.2178C23.4563 24.0155 23.2859 23.8446 23.0839 23.8446C22.7429 23.8446 22.4788 24.1089 22.4788 24.4508V28.712C22.4788 28.7897 22.5445 28.8348 22.603 28.8525L23.0223 28.9765C23.0807 28.9941 23.1616 29.0389 23.1616 29.1162V29.4593C23.1616 29.5361 23.0995 29.5981 23.0223 29.5981H20.3231C20.2457 29.5981 20.1834 29.5359 20.1834 29.4593V27.5359C19.4203 28.3273 17.8755 29.816 17.0706 29.816C16.1811 29.816 16.2952 28.8525 15.6227 28.8525C15.0387 28.8525 15.0021 29.816 13.3736 29.816C11.6209 29.816 10.1938 28.1683 10.1938 26.1151C10.1938 24.0776 11.6209 22.4139 13.3736 22.4139C14.8058 22.4139 15.1319 23.1916 15.4832 23.1916C15.7004 23.1916 15.7929 23.0202 15.8399 22.7717C15.8547 22.6937 15.9177 22.6317 16.0102 22.6317H18.2596C18.3372 22.6317 18.399 22.6941 18.399 22.7717V23.1138C18.399 23.1916 18.321 23.2355 18.2596 23.2538L17.8407 23.3779C17.7795 23.3962 17.7168 23.4403 17.7168 23.5179V27.2819C17.7168 27.5304 17.9494 27.7324 18.1975 27.7324C18.6478 27.7324 19.6125 26.9334 20.1832 26.4227V23.7666C20.1832 23.5957 20.0534 23.5177 19.9139 23.5177C19.7432 23.5177 19.7362 23.6735 19.5165 23.6735C19.3147 23.6735 19.1904 23.5025 19.1904 23.3467C19.1904 23.0513 19.718 22.4136 20.54 22.4136C21.9612 22.4136 21.742 23.4715 22.2461 23.4715C22.7037 23.4715 22.7814 22.4136 24.0302 22.4136C24.9453 22.4138 25.6745 23.1293 25.6745 24.0469ZM15.4207 24.98C15.4207 24.5132 14.7849 24.0469 14.1954 24.0469C13.1096 24.0469 12.4121 24.9018 12.4121 26.1149C12.4121 27.3281 13.1096 28.1987 14.1954 28.1987C14.7851 28.1987 15.4207 27.7322 15.4207 27.2656V24.98Z" fill="#E8B94D"/>
<path d="M26.3845 27.2741C26.3845 29.0861 27.7578 29.5987 28.6746 29.5987H33.3865C34.4545 29.5987 35.4725 28.8207 35.4725 27.5602C35.4725 25.655 32.5429 25.8269 32.5429 24.7336C32.5429 24.29 32.9738 24.1323 33.5083 24.1323C33.9103 24.1323 34.4607 24.3112 34.77 24.5407C34.8779 24.6203 34.9625 24.5423 34.9888 24.4817L35.7112 22.821C35.7428 22.7494 35.7054 22.6331 35.5856 22.6331H32.2014C31.2776 22.6331 30.4601 23.433 30.4601 24.4197C30.4601 26.3813 33.0042 26.0342 33.0042 27.3638C33.0042 27.8798 32.5942 28.3205 32.0242 28.3205C30.9006 28.3205 30.4274 27.567 30.3758 27.1327C30.3664 27.0485 30.2591 26.9899 30.1848 27.0194L29.7185 27.205C29.6297 27.24 29.6127 27.3638 29.6608 27.4235C29.7416 27.5228 29.7868 27.6192 29.7868 27.7743C29.7868 28.075 29.5511 28.3308 29.2296 28.3308C28.908 28.3308 28.6798 28.0578 28.6798 27.7743V18.0125C28.6798 17.9347 28.618 17.8726 28.5406 17.8726H25.8415C25.7638 17.8726 25.7017 17.9346 25.7017 18.0125V18.3545C25.7017 18.4325 25.7824 18.4769 25.8415 18.4944L26.2603 18.619C26.3192 18.6364 26.3841 18.6808 26.3841 18.7588L26.3845 27.2741Z" fill="#E8B94D"/>
<path d="M64.4062 22.7718V23.1139C64.4062 23.1917 64.3276 23.2356 64.2669 23.2539L63.8478 23.378C63.7867 23.3963 63.7241 23.4404 63.7241 23.518V30.6716C63.7241 32.414 62.2579 33.8135 60.5287 33.8135C59.3498 33.8135 58.3102 33.2691 57.7832 32.3673C57.0694 33.6418 54.7586 36.3798 48.0262 36.3798C44.3191 36.3798 38.0215 34.5441 34.7488 34.5441C30.2533 34.5441 27.2867 35.7654 24.2014 38.8681C24.1309 38.938 24.0736 38.959 23.9793 38.9073L18.2294 35.7579C18.1556 35.7174 18.1226 35.6043 18.1983 35.54C21.9999 32.3074 27.5049 30.6412 31.3983 30.6412C39.0145 30.6412 44.3191 34.4196 50.5708 34.4196C55.8445 34.4196 57.3795 31.7766 57.3795 30.8895C57.3795 30.797 57.4573 30.7501 57.519 30.7501H58.0467C58.1089 30.7501 58.1861 30.797 58.1861 30.8895C58.1861 31.7766 58.9149 32.4449 59.8308 32.4449C60.7458 32.4449 61.4283 31.7299 61.4283 30.7656V29.3976C61.4283 29.2425 61.3506 29.1482 61.1876 29.1482C60.948 29.1482 60.7149 29.8166 59.3807 29.8166C57.6282 29.8166 56.2011 28.1689 56.2011 26.1157C56.2011 24.0783 57.6282 22.4146 59.3807 22.4146C60.8133 22.4146 61.1388 23.1922 61.4906 23.1922C61.7079 23.1922 61.8 23.0208 61.8472 22.7723C61.8623 22.6943 61.9249 22.6323 62.018 22.6323H64.2674C64.3436 22.6318 64.4062 22.694 64.4062 22.7718ZM61.4278 24.9801C61.4278 24.5133 60.7921 24.047 60.2025 24.047C59.1167 24.047 58.4186 24.9019 58.4186 26.115C58.4186 27.3282 59.1167 28.1988 60.2025 28.1988C60.7921 28.1988 61.4278 27.7323 61.4278 27.2657V24.9801Z" fill="#E8B94D"/>
<path d="M56.8211 22.2585C56.8211 23.6895 55.9217 24.451 55.1767 24.451C54.2951 24.451 54.4172 23.8447 53.843 23.8447C53.5013 23.8447 53.1912 24.109 53.1912 24.451V28.7122C53.1912 28.7898 53.2563 28.8349 53.3156 28.8527L53.734 28.9767C53.7929 28.9943 53.873 29.039 53.873 29.1163V29.4595C53.873 29.5362 53.8116 29.5982 53.734 29.5982H51.0351C50.9574 29.5982 50.8954 29.536 50.8954 29.4595V24.5133C50.8954 24.1247 50.6469 23.9536 50.337 23.9536C50.0519 23.9536 49.6064 24.2078 49.2037 24.4863C49.1737 26.0161 47.8002 27.173 45.6675 27.173C45.6675 27.4682 46.3347 28.5562 47.6534 28.5562C48.4282 28.5562 49.0104 28.277 49.4131 27.7475C49.5977 27.5061 50.04 27.6009 49.832 28.0827C49.6304 28.5484 48.7076 29.816 46.8308 29.816C45.0661 29.816 43.5819 28.5841 43.2226 26.9053C42.7968 26.7783 42.369 26.5767 42.0531 26.3714V27.6702C42.0531 28.7744 41.2932 29.5982 40.0992 29.5982H38.9823C37.3378 29.5982 36.3143 28.6813 36.3143 27.2505V18.7588C36.3143 18.6808 36.2515 18.6371 36.1897 18.619L35.7717 18.4944C35.7103 18.4762 35.6318 18.4325 35.6318 18.3545V18.0125C35.6318 17.9347 35.694 17.8726 35.7717 17.8726H38.4702C38.548 17.8726 38.6099 17.9346 38.6099 18.0125V27.4522C38.6099 28.1372 39.277 28.4329 39.7582 28.4329C40.2855 28.4329 40.9054 28.2303 40.9054 27.4993V25.6331L39.9749 25.0734C39.8494 24.9981 39.7582 24.9023 39.7582 24.7156V22.7713C39.7582 22.6937 39.8201 22.6315 39.8972 22.6315H41.9139C41.9911 22.6315 42.0531 22.6938 42.0531 22.7713V25.4116C42.3481 25.6081 42.7617 25.8356 43.141 25.998C43.2017 24 44.8075 22.4139 46.8308 22.4139C47.9624 22.4139 48.6807 22.9447 49.0042 23.5962C49.6737 23.0773 50.6904 22.4139 51.5152 22.4139C52.4391 22.4139 52.4422 23.1759 52.8958 23.1759C53.0512 23.1759 53.1745 23.036 53.1745 22.8805C53.1745 22.6898 53.0819 22.5459 53.0819 22.3674C53.0819 22.0251 53.423 21.714 53.7956 21.714C54.4653 21.714 54.8473 22.4137 55.4243 22.4137C55.6723 22.4137 55.9669 22.1652 55.9669 21.7918C55.9669 21.4357 55.5562 20.8763 55.1602 20.5477C54.889 20.3221 55.1836 19.9075 55.5251 20.1041C56.3867 20.6026 56.8211 21.3799 56.8211 22.2585ZM47.8548 24.5133C47.8548 24.311 47.7929 23.7982 47.1413 23.7982C46.3665 23.7982 45.544 24.7313 45.544 26.3021C47.0486 26.3021 47.8548 25.1041 47.8548 24.5133Z" fill="#E8B94D"/>
<path d="M53.7007 15.8797C53.5253 15.88 53.3823 15.7374 53.3823 15.561V14.9132C53.3823 14.6783 53.1934 14.4883 52.9586 14.4883C52.8597 14.4883 52.7706 14.5252 52.6985 14.5826C52.4229 14.8002 52.0485 14.8624 51.712 14.7299C51.4236 14.6165 51.0893 14.7258 50.9301 15.0022C50.7704 15.2795 50.8438 15.6241 51.0854 15.8177C51.3687 16.0442 51.5011 16.4003 51.4516 16.7485C51.4379 16.8401 51.4504 16.9353 51.4997 17.0213C51.6169 17.2245 51.8764 17.294 52.0794 17.1771L52.6393 16.8526C52.7912 16.7648 52.9852 16.8174 53.0727 16.9696C53.1604 17.1222 53.1084 17.3174 52.9563 17.4052L52.3973 17.7288C52.1939 17.8464 52.1252 18.1065 52.2424 18.3099C52.2915 18.3956 52.3684 18.4546 52.4532 18.4885C52.7798 18.6195 53.0204 18.9129 53.0741 19.2714C53.1206 19.5783 53.3816 19.814 53.7007 19.814C54.0197 19.814 54.2813 19.5783 54.3269 19.2714C54.3807 18.9127 54.6225 18.6195 54.9484 18.4885C55.0334 18.4546 55.1097 18.3956 55.1592 18.3099C55.2764 18.1066 55.2073 17.8466 55.0039 17.7288L54.4444 17.4052C54.2925 17.3174 54.2405 17.1222 54.3285 16.9696C54.416 16.8174 54.6108 16.7648 54.7627 16.8526L55.3222 17.1771C55.5247 17.294 55.7844 17.2245 55.9015 17.0213C55.9505 16.9353 55.9635 16.8399 55.9498 16.7485C55.8996 16.4003 56.0329 16.0442 56.3158 15.8177C56.5576 15.6241 56.6305 15.2795 56.4717 15.0022C56.3119 14.7256 55.978 14.6165 55.69 14.7299C55.3529 14.8624 54.9787 14.8002 54.7025 14.5826C54.6306 14.5252 54.5419 14.4883 54.443 14.4883C54.2085 14.4883 54.019 14.6783 54.019 14.9132V15.561C54.019 15.7374 53.8766 15.8797 53.7007 15.8797Z" fill="#E8B94D"/>
<path d="M20.5806 31.012C18.8775 32.7144 16.4339 33.8653 13.8386 33.8653C8.64782 33.8653 4.2373 29.592 4.2373 24.0669C4.2373 20.3326 6.04656 17.094 8.80988 14.6127C8.89189 14.5391 9.00726 14.4878 9.12814 14.4878H21.1092C21.2154 14.4878 21.2867 14.6084 21.2047 14.7029L17.2074 19.9756C17.1503 20.0512 17.0452 20.0512 16.9806 19.9866C16.2294 19.2336 14.9562 18.7581 13.7701 18.7581C10.5148 18.7581 7.92221 22.0135 7.92221 25.2516C7.92221 29.1596 11.2099 32.4007 15.1317 32.4007C16.9891 32.4007 18.8145 31.6772 20.0799 30.5068C20.494 30.1251 20.9711 30.6219 20.5806 31.012Z" fill="#E8B94D"/>
</svg>
