<svg width="60" height="24" viewBox="0 0 60 24" fill="none" xmlns="http://www.w3.org/2000/svg">
<path d="M0.547762 12.014C1.13443 11.838 1.6111 11.53 1.97776 11.09C2.34443 10.6573 2.60476 10.166 2.75876 9.616C2.9201 9.07333 3.00076 8.52333 3.00076 7.966V2.268C3.00076 1.99667 2.94943 1.795 2.84676 1.663C2.75143 1.531 2.6341 1.465 2.49476 1.465V1.333C3.0741 1.36233 3.49576 1.377 3.75976 1.377C4.02376 1.377 4.44543 1.36233 5.02476 1.333V1.465C4.88543 1.465 4.76443 1.531 4.66176 1.663C4.56643 1.795 4.51876 1.99667 4.51876 2.268L4.52976 7.768C4.52976 8.81667 4.32443 9.66 3.91376 10.298C3.5031 10.936 2.99343 11.387 2.38476 11.651C1.78343 11.915 1.1711 12.047 0.547762 12.047V12.014ZM8.83532 9C8.42465 9 8.04332 8.87533 7.69132 8.626C7.34665 8.37667 7.07165 8.03933 6.86632 7.614C6.66832 7.18133 6.56932 6.712 6.56932 6.206C6.56932 5.7 6.66832 5.23433 6.86632 4.809C7.07165 4.37633 7.34665 4.03533 7.69132 3.786C8.04332 3.52933 8.42465 3.401 8.83532 3.401C9.24598 3.401 9.62365 3.52933 9.96832 3.786C10.3203 4.03533 10.599 4.37633 10.8043 4.809C11.0097 5.23433 11.1123 5.7 11.1123 6.206C11.1123 6.712 11.0097 7.18133 10.8043 7.614C10.599 8.03933 10.3203 8.37667 9.96832 8.626C9.62365 8.87533 9.24598 9 8.83532 9ZM8.92332 8.637C9.11398 8.62967 9.27165 8.417 9.39632 7.999C9.52832 7.581 9.59432 7.064 9.59432 6.448C9.59432 5.97133 9.55398 5.52767 9.47332 5.117C9.39998 4.70633 9.30098 4.38 9.17632 4.138C9.05165 3.896 8.91598 3.775 8.76932 3.775C8.57132 3.78233 8.40632 3.99867 8.27432 4.424C8.14965 4.842 8.08732 5.359 8.08732 5.975C8.08732 6.45167 8.12398 6.89533 8.19732 7.306C8.27798 7.70933 8.38065 8.032 8.50532 8.274C8.63732 8.516 8.77665 8.637 8.92332 8.637ZM12.6537 8.791C12.793 8.791 12.9104 8.725 13.0057 8.593C13.101 8.461 13.1487 8.25933 13.1487 7.988V4.391C13.1487 4.11967 13.101 3.92167 13.0057 3.797C12.9104 3.665 12.793 3.599 12.6537 3.599V3.467C13.013 3.489 13.3137 3.5 13.5557 3.5C13.7684 3.5 13.9994 3.49267 14.2487 3.478C14.3294 3.47067 14.432 3.467 14.5567 3.467C14.6374 3.467 14.6777 3.64667 14.6777 4.006C14.8317 3.808 15.0297 3.654 15.2717 3.544C15.5137 3.434 15.7704 3.379 16.0417 3.379C16.3644 3.379 16.6614 3.45967 16.9327 3.621C17.2114 3.775 17.435 4.02067 17.6037 4.358C17.7797 4.688 17.8677 5.10233 17.8677 5.601L17.8787 7.108V7.988C17.8787 8.25933 17.9264 8.461 18.0217 8.593C18.1244 8.725 18.2454 8.791 18.3847 8.791V8.923C17.8054 8.89367 17.3837 8.879 17.1197 8.879C16.8557 8.879 16.434 8.89367 15.8547 8.923V8.791C15.994 8.791 16.1114 8.725 16.2067 8.593C16.3094 8.461 16.3607 8.25933 16.3607 7.988V7.416C16.3534 7.10067 16.3497 6.68267 16.3497 6.162C16.3497 5.568 16.324 5.10233 16.2727 4.765C16.2214 4.42767 16.1407 4.18933 16.0307 4.05C15.928 3.90333 15.785 3.83 15.6017 3.83C15.4844 3.83 15.356 3.88867 15.2167 4.006C15.0847 4.12333 14.9637 4.32867 14.8537 4.622C14.7437 4.908 14.685 5.293 14.6777 5.777L14.6667 8.923C14.3587 8.901 14.025 8.89 13.6657 8.89C13.3137 8.89 12.9764 8.901 12.6537 8.923V8.791ZM21.4817 9.066C21.071 9.066 20.708 8.95233 20.3927 8.725C20.0774 8.49767 19.9197 8.142 19.9197 7.658C19.9197 7.33533 20.004 7.053 20.1727 6.811C20.3414 6.569 20.543 6.36733 20.7777 6.206C21.0197 6.03733 21.324 5.85767 21.6907 5.667C22.0867 5.45433 22.3764 5.27467 22.5597 5.128C22.743 4.98133 22.8347 4.81267 22.8347 4.622C22.8347 4.17467 22.6257 3.90333 22.2077 3.808C22.1857 3.80067 22.149 3.797 22.0977 3.797C21.9804 3.797 21.8814 3.82633 21.8007 3.885C21.7274 3.93633 21.6907 4.00233 21.6907 4.083C21.6907 4.14167 21.7164 4.20033 21.7677 4.259C21.8777 4.369 21.9327 4.534 21.9327 4.754C21.9327 4.98867 21.852 5.19033 21.6907 5.359C21.5294 5.52033 21.3314 5.601 21.0967 5.601C20.862 5.601 20.6604 5.52033 20.4917 5.359C20.3304 5.19033 20.2497 4.98867 20.2497 4.754C20.2497 4.49 20.345 4.26267 20.5357 4.072C20.7337 3.874 20.9867 3.72367 21.2947 3.621C21.6027 3.511 21.9217 3.456 22.2517 3.456C22.6404 3.456 22.9924 3.52933 23.3077 3.676C23.6304 3.82267 23.887 4.04633 24.0777 4.347C24.2684 4.64033 24.3637 4.99967 24.3637 5.425V7.988C24.3637 8.25933 24.4114 8.461 24.5067 8.593C24.6094 8.725 24.7304 8.791 24.8697 8.791V8.923C24.5617 8.901 24.25 8.89 23.9347 8.89C23.6267 8.89 23.3187 8.901 23.0107 8.923C22.974 8.923 22.9484 8.89367 22.9337 8.835C22.9264 8.769 22.9227 8.703 22.9227 8.637C22.9227 8.56367 22.9227 8.51233 22.9227 8.483C22.622 8.813 22.2004 9.00367 21.6577 9.055L21.4817 9.066ZM22.1747 8.582C22.4534 8.47933 22.633 8.26667 22.7137 7.944C22.7944 7.614 22.8384 7.08967 22.8457 6.371V5.26C22.7797 5.39933 22.7027 5.524 22.6147 5.634C22.534 5.744 22.4204 5.87967 22.2737 6.041C22.039 6.29033 21.8484 6.52867 21.7017 6.756C21.555 6.98333 21.4487 7.273 21.3827 7.625C21.368 7.68367 21.3607 7.77167 21.3607 7.889C21.3607 8.09433 21.4084 8.27033 21.5037 8.417C21.599 8.56367 21.731 8.637 21.8997 8.637C21.973 8.637 22.0647 8.61867 22.1747 8.582ZM28.2933 9.121C27.8973 9.121 27.5563 9.06233 27.2703 8.945C26.9916 8.82767 26.779 8.67367 26.6323 8.483C26.4856 8.29233 26.4123 8.087 26.4123 7.867C26.4123 7.74967 26.4343 7.63233 26.4783 7.515C26.537 7.361 26.6323 7.24733 26.7643 7.174C26.9036 7.09333 27.054 7.053 27.2153 7.053C27.3986 7.053 27.5673 7.097 27.7213 7.185C27.626 7.25833 27.549 7.36467 27.4903 7.504C27.439 7.636 27.4133 7.77533 27.4133 7.922C27.4133 8.15667 27.483 8.35467 27.6223 8.516C27.7616 8.67 27.9706 8.747 28.2493 8.747C28.5206 8.747 28.7223 8.68833 28.8543 8.571C28.9863 8.45367 29.0523 8.307 29.0523 8.131C29.0523 7.933 28.9716 7.746 28.8103 7.57C28.583 7.35 28.2493 7.108 27.8093 6.844C27.4426 6.624 27.1566 6.41867 26.9513 6.228C26.7533 6.03733 26.614 5.788 26.5333 5.48C26.4893 5.304 26.4673 5.139 26.4673 4.985C26.4673 4.66967 26.5516 4.38733 26.7203 4.138C26.889 3.88133 27.12 3.687 27.4133 3.555C27.714 3.41567 28.0586 3.34967 28.4473 3.357C28.66 3.36433 28.8506 3.412 29.0193 3.5C29.188 3.58067 29.3713 3.698 29.5693 3.852C29.7013 3.94733 29.8076 4.02067 29.8883 4.072C29.9763 4.116 30.057 4.138 30.1303 4.138C30.1743 4.138 30.2183 4.127 30.2623 4.105L30.3173 4.204C30.0826 4.39467 29.8626 4.61833 29.6573 4.875C29.452 5.13167 29.2796 5.381 29.1403 5.623L29.0303 5.513C29.1256 5.35167 29.1733 5.14267 29.1733 4.886C29.1733 4.578 29.1 4.30667 28.9533 4.072C28.814 3.83733 28.6233 3.72 28.3813 3.72C28.1833 3.72 28.0183 3.78233 27.8863 3.907C27.7543 4.02433 27.6883 4.17467 27.6883 4.358C27.6883 4.54133 27.7653 4.73933 27.9193 4.952C28.0733 5.15733 28.3153 5.36267 28.6453 5.568C29.0926 5.83933 29.4593 6.09967 29.7453 6.349C30.0313 6.59833 30.2293 6.85867 30.3393 7.13C30.42 7.31333 30.4603 7.49667 30.4603 7.68C30.4603 7.93667 30.3796 8.175 30.2183 8.395C30.0643 8.615 29.8223 8.791 29.4923 8.923C29.1696 9.055 28.77 9.121 28.2933 9.121ZM37.2208 8.967C36.7955 8.967 36.3921 8.84233 36.0108 8.593C35.6295 8.34367 35.3251 8.00633 35.0978 7.581C34.8705 7.14833 34.7568 6.68267 34.7568 6.184C34.7568 5.66333 34.8558 5.194 35.0538 4.776C35.2591 4.35067 35.5525 4.017 35.9338 3.775C36.3151 3.52567 36.7625 3.401 37.2758 3.401C37.4958 3.401 37.6865 3.445 37.8478 3.533C38.0091 3.61367 38.1851 3.731 38.3758 3.885C38.4858 3.973 38.5775 4.039 38.6508 4.083C38.7241 4.127 38.7938 4.149 38.8598 4.149C38.9038 4.149 38.9478 4.138 38.9918 4.116L39.0468 4.204C38.8121 4.39467 38.5848 4.633 38.3648 4.919C38.1448 5.205 37.9578 5.491 37.8038 5.777L37.6938 5.667C37.7965 5.50567 37.8478 5.27467 37.8478 4.974C37.8478 4.666 37.7928 4.38733 37.6828 4.138C37.5728 3.88867 37.4298 3.764 37.2538 3.764C37.0778 3.764 36.9201 3.863 36.7808 4.061C36.6415 4.25167 36.5315 4.51567 36.4508 4.853C36.3701 5.19033 36.3298 5.56433 36.3298 5.975C36.3298 6.73767 36.4288 7.36833 36.6268 7.867C36.8321 8.35833 37.1035 8.604 37.4408 8.604C37.6241 8.604 37.7708 8.516 37.8808 8.34C37.9981 8.15667 38.0568 7.944 38.0568 7.702C38.0568 7.43067 37.9871 7.18867 37.8478 6.976C38.1411 6.94667 38.3795 7.02367 38.5628 7.207C38.7535 7.383 38.8488 7.59567 38.8488 7.845C38.8488 8.14567 38.7095 8.40967 38.4308 8.637C38.1595 8.857 37.7561 8.967 37.2208 8.967ZM40.5834 8.791C40.7227 8.791 40.84 8.725 40.9354 8.593C41.0307 8.461 41.0784 8.25933 41.0784 7.988V4.391C41.0784 4.11967 41.0307 3.92167 40.9354 3.797C40.84 3.665 40.7227 3.599 40.5834 3.599V3.467C40.9427 3.489 41.2434 3.5 41.4854 3.5C41.698 3.5 41.929 3.49267 42.1784 3.478C42.259 3.47067 42.3617 3.467 42.4864 3.467C42.567 3.467 42.6074 3.64667 42.6074 4.006C42.8274 3.59533 43.205 3.39 43.7404 3.39C44.063 3.39 44.3417 3.5 44.5764 3.72C44.8184 3.94 44.9394 4.22233 44.9394 4.567C44.9394 4.831 44.8587 5.05833 44.6974 5.249C44.536 5.43233 44.3344 5.524 44.0924 5.524C43.8577 5.524 43.656 5.44333 43.4874 5.282C43.326 5.12067 43.2454 4.92267 43.2454 4.688C43.2454 4.46067 43.3004 4.292 43.4104 4.182C43.4764 4.10133 43.5094 4.028 43.5094 3.962C43.5094 3.90333 43.4874 3.85567 43.4434 3.819C43.4067 3.775 43.3554 3.753 43.2894 3.753C43.238 3.753 43.1867 3.76767 43.1354 3.797C42.9594 3.885 42.8274 4.06833 42.7394 4.347C42.6514 4.61833 42.6074 5.095 42.6074 5.777V7.988C42.6074 8.25933 42.655 8.461 42.7504 8.593C42.8457 8.725 42.963 8.791 43.1024 8.791V8.923C42.5304 8.89367 42.1124 8.879 41.8484 8.879C41.5844 8.879 41.1627 8.89367 40.5834 8.923V8.791ZM48.0364 9.066C47.6257 9.066 47.2627 8.95233 46.9474 8.725C46.6321 8.49767 46.4744 8.142 46.4744 7.658C46.4744 7.33533 46.5587 7.053 46.7274 6.811C46.8961 6.569 47.0977 6.36733 47.3324 6.206C47.5744 6.03733 47.8787 5.85767 48.2454 5.667C48.6414 5.45433 48.9311 5.27467 49.1144 5.128C49.2977 4.98133 49.3894 4.81267 49.3894 4.622C49.3894 4.17467 49.1804 3.90333 48.7624 3.808C48.7404 3.80067 48.7037 3.797 48.6524 3.797C48.5351 3.797 48.4361 3.82633 48.3554 3.885C48.2821 3.93633 48.2454 4.00233 48.2454 4.083C48.2454 4.14167 48.2711 4.20033 48.3224 4.259C48.4324 4.369 48.4874 4.534 48.4874 4.754C48.4874 4.98867 48.4067 5.19033 48.2454 5.359C48.0841 5.52033 47.8861 5.601 47.6514 5.601C47.4167 5.601 47.2151 5.52033 47.0464 5.359C46.8851 5.19033 46.8044 4.98867 46.8044 4.754C46.8044 4.49 46.8997 4.26267 47.0904 4.072C47.2884 3.874 47.5414 3.72367 47.8494 3.621C48.1574 3.511 48.4764 3.456 48.8064 3.456C49.1951 3.456 49.5471 3.52933 49.8624 3.676C50.1851 3.82267 50.4417 4.04633 50.6324 4.347C50.8231 4.64033 50.9184 4.99967 50.9184 5.425V7.988C50.9184 8.25933 50.9661 8.461 51.0614 8.593C51.1641 8.725 51.2851 8.791 51.4244 8.791V8.923C51.1164 8.901 50.8047 8.89 50.4894 8.89C50.1814 8.89 49.8734 8.901 49.5654 8.923C49.5287 8.923 49.5031 8.89367 49.4884 8.835C49.4811 8.769 49.4774 8.703 49.4774 8.637C49.4774 8.56367 49.4774 8.51233 49.4774 8.483C49.1767 8.813 48.7551 9.00367 48.2124 9.055L48.0364 9.066ZM48.7294 8.582C49.0081 8.47933 49.1877 8.26667 49.2684 7.944C49.3491 7.614 49.3931 7.08967 49.4004 6.371V5.26C49.3344 5.39933 49.2574 5.524 49.1694 5.634C49.0887 5.744 48.9751 5.87967 48.8284 6.041C48.5937 6.29033 48.4031 6.52867 48.2564 6.756C48.1097 6.98333 48.0034 7.273 47.9374 7.625C47.9227 7.68367 47.9154 7.77167 47.9154 7.889C47.9154 8.09433 47.9631 8.27033 48.0584 8.417C48.1537 8.56367 48.2857 8.637 48.4544 8.637C48.5277 8.637 48.6194 8.61867 48.7294 8.582ZM52.854 10.716C52.9493 10.7013 53.0263 10.6353 53.085 10.518C53.151 10.4007 53.184 10.2247 53.184 9.99V4.028H52.678V3.577H53.184L53.195 3.236C53.239 2.32667 53.426 1.66667 53.756 1.256C54.0933 0.838 54.581 0.629 55.219 0.629C55.4756 0.629 55.6956 0.695 55.879 0.827C56.0696 0.959 56.2126 1.12767 56.308 1.333C56.4106 1.53833 56.462 1.74733 56.462 1.96C56.462 2.224 56.3923 2.444 56.253 2.62C56.121 2.796 55.923 2.884 55.659 2.884C55.4903 2.884 55.3436 2.82167 55.219 2.697C55.1016 2.57233 55.043 2.42567 55.043 2.257C55.043 2.00033 55.1493 1.80233 55.362 1.663C55.56 1.53833 55.659 1.39167 55.659 1.223C55.659 1.135 55.626 1.06533 55.56 1.014C55.5013 0.955333 55.4243 0.929666 55.329 0.937C55.0796 0.959 54.9146 1.12767 54.834 1.443C54.7533 1.75833 54.713 2.18367 54.713 2.719V3.412V3.577H55.373V4.028H54.713V9.363C54.5883 9.35567 54.4746 9.40333 54.372 9.506C54.2693 9.616 54.1373 9.78833 53.976 10.023C53.778 10.3163 53.5983 10.54 53.437 10.694C53.2756 10.848 53.0813 10.925 52.854 10.925V10.716ZM59.3313 10.562C59.104 10.562 58.906 10.4813 58.7373 10.32C58.576 10.166 58.4037 9.946 58.2203 9.66C58.059 9.42533 57.927 9.253 57.8243 9.143C57.7217 9.04033 57.608 8.99267 57.4833 9V4.028H57.0103V3.566H57.0213C57.256 3.566 57.4467 3.52567 57.5933 3.445C57.74 3.357 57.85 3.25433 57.9233 3.137C58.004 3.01233 58.092 2.84367 58.1873 2.631C58.2973 2.37433 58.4073 2.17633 58.5173 2.037C58.6273 1.89033 58.7887 1.79133 59.0013 1.74L59.1223 1.762C59.071 1.84267 59.038 1.95633 59.0233 2.103C59.016 2.24233 59.0123 2.455 59.0123 2.741V3.566H59.4523V4.028H59.0123V9.627C59.0123 9.86167 59.0417 10.0377 59.1003 10.155C59.1663 10.2723 59.2433 10.3383 59.3313 10.353V10.562ZM12.3874 20.055C12.05 20.055 11.7897 20.0037 11.6064 19.901C11.4304 19.791 11.2654 19.6517 11.1114 19.483C11.1114 19.5123 11.1114 19.593 11.1114 19.725C11.1114 19.857 11.0857 19.923 11.0344 19.923C10.7264 19.901 10.4184 19.89 10.1104 19.89C9.80971 19.89 9.49804 19.901 9.17537 19.923V19.791C9.31471 19.791 9.43204 19.725 9.52737 19.593C9.62271 19.461 9.67037 19.2593 9.67037 18.988V12.278C9.67037 12.0067 9.62271 11.805 9.52737 11.673C9.43204 11.541 9.31471 11.4713 9.17537 11.464V11.343C9.30737 11.3577 9.42471 11.365 9.52737 11.365C9.79137 11.365 10.0774 11.343 10.3854 11.299C10.7007 11.255 10.9647 11.2 11.1774 11.134L11.3094 11.167C11.258 11.2477 11.225 11.3577 11.2104 11.497C11.203 11.6363 11.1994 11.849 11.1994 12.135V14.775C11.2947 14.6723 11.423 14.5953 11.5844 14.544C11.753 14.4853 11.94 14.456 12.1454 14.456C12.5047 14.456 12.853 14.5477 13.1904 14.731C13.535 14.9143 13.821 15.2113 14.0484 15.622C14.2757 16.0327 14.3894 16.5533 14.3894 17.184C14.3894 17.712 14.3014 18.196 14.1254 18.636C13.9567 19.0687 13.7184 19.4133 13.4104 19.67C13.1097 19.9267 12.7687 20.055 12.3874 20.055ZM11.8704 19.637C11.929 19.659 11.9877 19.67 12.0464 19.67C12.2884 19.67 12.4864 19.461 12.6404 19.043C12.7944 18.6177 12.8714 18.0493 12.8714 17.338C12.8714 16.9053 12.8347 16.502 12.7614 16.128C12.688 15.7467 12.5854 15.4387 12.4534 15.204C12.3214 14.9693 12.1747 14.8447 12.0134 14.83C11.8007 14.8007 11.6137 14.9107 11.4524 15.16C11.2984 15.402 11.214 15.864 11.1994 16.546V17.371C11.2067 18.031 11.2617 18.548 11.3644 18.922C11.467 19.296 11.6357 19.5343 11.8704 19.637ZM15.9258 19.791C16.0651 19.791 16.1824 19.725 16.2778 19.593C16.3731 19.461 16.4208 19.2593 16.4208 18.988V15.391C16.4208 15.1197 16.3731 14.9217 16.2778 14.797C16.1824 14.665 16.0651 14.599 15.9258 14.599V14.467C16.2851 14.489 16.5858 14.5 16.8278 14.5C17.0404 14.5 17.2714 14.4927 17.5208 14.478C17.6014 14.4707 17.7041 14.467 17.8288 14.467C17.9094 14.467 17.9498 14.6467 17.9498 15.006C18.1698 14.5953 18.5474 14.39 19.0828 14.39C19.4054 14.39 19.6841 14.5 19.9188 14.72C20.1608 14.94 20.2818 15.2223 20.2818 15.567C20.2818 15.831 20.2011 16.0583 20.0398 16.249C19.8784 16.4323 19.6768 16.524 19.4348 16.524C19.2001 16.524 18.9984 16.4433 18.8298 16.282C18.6684 16.1207 18.5878 15.9227 18.5878 15.688C18.5878 15.4607 18.6428 15.292 18.7528 15.182C18.8188 15.1013 18.8518 15.028 18.8518 14.962C18.8518 14.9033 18.8298 14.8557 18.7858 14.819C18.7491 14.775 18.6978 14.753 18.6318 14.753C18.5804 14.753 18.5291 14.7677 18.4778 14.797C18.3018 14.885 18.1698 15.0683 18.0818 15.347C17.9938 15.6183 17.9498 16.095 17.9498 16.777V18.988C17.9498 19.2593 17.9974 19.461 18.0928 19.593C18.1881 19.725 18.3054 19.791 18.4448 19.791V19.923C17.8728 19.8937 17.4548 19.879 17.1908 19.879C16.9268 19.879 16.5051 19.8937 15.9258 19.923V19.791ZM24.2808 20C23.8554 20 23.4521 19.8753 23.0708 19.626C22.6894 19.3767 22.3851 19.0393 22.1578 18.614C21.9304 18.1813 21.8168 17.7157 21.8168 17.217C21.8168 16.711 21.9194 16.2453 22.1248 15.82C22.3374 15.3947 22.6234 15.0573 22.9828 14.808C23.3421 14.5587 23.7344 14.434 24.1598 14.434C24.7611 14.434 25.2451 14.632 25.6118 15.028C25.9784 15.4167 26.1618 15.952 26.1618 16.634L26.0958 16.7C25.9858 16.7807 25.8538 16.8393 25.6998 16.876C25.5458 16.9053 25.3441 16.9347 25.0948 16.964C25.0581 16.9713 24.9481 16.9897 24.7648 17.019C24.5888 17.041 24.4384 17.0813 24.3138 17.14C24.1744 17.206 24.0681 17.294 23.9948 17.404C23.9214 17.5067 23.8848 17.6093 23.8848 17.712C23.8848 17.8513 23.9471 17.9247 24.0718 17.932C24.2111 17.9393 24.3138 17.9613 24.3798 17.998C24.4458 18.0347 24.4788 18.1043 24.4788 18.207C24.4788 18.2877 24.4458 18.3537 24.3798 18.405C24.3211 18.449 24.2478 18.4783 24.1598 18.493C23.9544 18.5003 23.7968 18.4343 23.6868 18.295C23.5841 18.1557 23.5328 17.9907 23.5328 17.8C23.5328 17.712 23.5438 17.635 23.5658 17.569C23.6171 17.4077 23.7014 17.2683 23.8188 17.151C23.9361 17.0337 24.0938 16.9017 24.2918 16.755C24.4678 16.6157 24.5998 16.502 24.6878 16.414C24.7831 16.326 24.8564 16.2233 24.9078 16.106C24.9664 15.9667 24.9958 15.82 24.9958 15.666C24.9958 15.424 24.9261 15.2187 24.7868 15.05C24.6474 14.8813 24.4898 14.797 24.3138 14.797C24.1378 14.797 23.9801 14.896 23.8408 15.094C23.7014 15.2847 23.5914 15.5487 23.5108 15.886C23.4301 16.2233 23.3898 16.5973 23.3898 17.008C23.3898 17.7633 23.4888 18.3903 23.6868 18.889C23.8921 19.3877 24.1634 19.637 24.5008 19.637C24.7061 19.637 24.8784 19.5343 25.0178 19.329C25.1644 19.1237 25.2378 18.8853 25.2378 18.614C25.2378 18.372 25.1791 18.1667 25.0618 17.998L25.1828 17.987C25.4248 17.987 25.6154 18.0677 25.7548 18.229C25.9014 18.3903 25.9748 18.5847 25.9748 18.812C25.9748 19.01 25.9124 19.2007 25.7878 19.384C25.6704 19.56 25.4834 19.7067 25.2268 19.824C24.9774 19.9413 24.6621 20 24.2808 20ZM29.8912 19.923C29.8619 19.9303 29.8142 19.934 29.7482 19.934C29.5575 19.934 29.3925 19.8643 29.2532 19.725C29.1139 19.5783 29.0039 19.3327 28.9232 18.988L28.0652 15.402C27.9992 15.1307 27.9149 14.929 27.8122 14.797C27.7169 14.665 27.6179 14.5953 27.5152 14.588L27.4822 14.467C27.5702 14.4817 27.6949 14.489 27.8562 14.489C27.9515 14.489 28.0799 14.4817 28.2412 14.467L28.5492 14.456C28.8792 14.456 29.1139 14.522 29.2532 14.654C29.3999 14.786 29.5025 14.9913 29.5612 15.27L30.3312 18.504L31.0572 15.402C31.0939 15.2627 31.1122 15.127 31.1122 14.995C31.1122 14.863 31.0902 14.7713 31.0462 14.72C30.9802 14.6393 30.8959 14.599 30.7932 14.599L30.7712 14.467C30.8592 14.4817 30.9839 14.489 31.1452 14.489C31.2405 14.489 31.3689 14.4817 31.5302 14.467L31.8382 14.456C32.1682 14.456 32.4029 14.522 32.5422 14.654C32.6815 14.786 32.7842 14.9913 32.8502 15.27L33.6092 18.504L34.3462 15.402C34.3829 15.2333 34.4012 15.1087 34.4012 15.028C34.4012 14.8813 34.3719 14.775 34.3132 14.709C34.2545 14.6357 34.1812 14.599 34.0932 14.599L34.1262 14.467L34.4122 14.478C34.8009 14.478 35.1125 14.4377 35.3472 14.357L35.3912 14.467C35.2959 14.5623 35.1859 14.874 35.0612 15.402L34.2032 18.988C34.1739 19.1053 34.1592 19.219 34.1592 19.329C34.1592 19.4903 34.1922 19.6077 34.2582 19.681C34.3315 19.7543 34.4159 19.791 34.5112 19.791L34.4892 19.923C34.4379 19.923 34.3462 19.9193 34.2142 19.912C34.0895 19.9047 33.9135 19.901 33.6862 19.901C33.4442 19.901 33.2755 19.9083 33.1802 19.923C33.1509 19.9303 33.1032 19.934 33.0372 19.934C32.8465 19.934 32.6779 19.8643 32.5312 19.725C32.3919 19.5783 32.2819 19.3327 32.2012 18.988L31.5632 16.282L30.9252 18.988C30.8959 19.1053 30.8812 19.219 30.8812 19.329C30.8812 19.4903 30.9142 19.6077 30.9802 19.681C31.0535 19.7543 31.1379 19.791 31.2332 19.791L31.2112 19.923C31.1819 19.923 31.0829 19.9193 30.9142 19.912C30.7529 19.9047 30.5879 19.901 30.4192 19.901C30.1699 19.901 29.9939 19.9083 29.8912 19.923ZM39.178 20C38.7527 20 38.3494 19.8753 37.968 19.626C37.5867 19.3767 37.2824 19.0393 37.055 18.614C36.8277 18.1813 36.714 17.7157 36.714 17.217C36.714 16.711 36.8167 16.2453 37.022 15.82C37.2347 15.3947 37.5207 15.0573 37.88 14.808C38.2394 14.5587 38.6317 14.434 39.057 14.434C39.6584 14.434 40.1424 14.632 40.509 15.028C40.8757 15.4167 41.059 15.952 41.059 16.634L40.993 16.7C40.883 16.7807 40.751 16.8393 40.597 16.876C40.443 16.9053 40.2414 16.9347 39.992 16.964C39.9554 16.9713 39.8454 16.9897 39.662 17.019C39.486 17.041 39.3357 17.0813 39.211 17.14C39.0717 17.206 38.9654 17.294 38.892 17.404C38.8187 17.5067 38.782 17.6093 38.782 17.712C38.782 17.8513 38.8444 17.9247 38.969 17.932C39.1084 17.9393 39.211 17.9613 39.277 17.998C39.343 18.0347 39.376 18.1043 39.376 18.207C39.376 18.2877 39.343 18.3537 39.277 18.405C39.2184 18.449 39.145 18.4783 39.057 18.493C38.8517 18.5003 38.694 18.4343 38.584 18.295C38.4814 18.1557 38.43 17.9907 38.43 17.8C38.43 17.712 38.441 17.635 38.463 17.569C38.5144 17.4077 38.5987 17.2683 38.716 17.151C38.8334 17.0337 38.991 16.9017 39.189 16.755C39.365 16.6157 39.497 16.502 39.585 16.414C39.6804 16.326 39.7537 16.2233 39.805 16.106C39.8637 15.9667 39.893 15.82 39.893 15.666C39.893 15.424 39.8234 15.2187 39.684 15.05C39.5447 14.8813 39.387 14.797 39.211 14.797C39.035 14.797 38.8774 14.896 38.738 15.094C38.5987 15.2847 38.4887 15.5487 38.408 15.886C38.3274 16.2233 38.287 16.5973 38.287 17.008C38.287 17.7633 38.386 18.3903 38.584 18.889C38.7894 19.3877 39.0607 19.637 39.398 19.637C39.6034 19.637 39.7757 19.5343 39.915 19.329C40.0617 19.1237 40.135 18.8853 40.135 18.614C40.135 18.372 40.0764 18.1667 39.959 17.998L40.08 17.987C40.322 17.987 40.5127 18.0677 40.652 18.229C40.7987 18.3903 40.872 18.5847 40.872 18.812C40.872 19.01 40.8097 19.2007 40.685 19.384C40.5677 19.56 40.3807 19.7067 40.124 19.824C39.8747 19.9413 39.5594 20 39.178 20ZM42.5943 19.791C42.7337 19.791 42.851 19.725 42.9463 19.593C43.0417 19.461 43.0893 19.2593 43.0893 18.988V15.391C43.0893 15.1197 43.0417 14.9217 42.9463 14.797C42.851 14.665 42.7337 14.599 42.5943 14.599V14.467C42.9537 14.489 43.2543 14.5 43.4963 14.5C43.709 14.5 43.94 14.4927 44.1893 14.478C44.27 14.4707 44.3727 14.467 44.4973 14.467C44.578 14.467 44.6183 14.6467 44.6183 15.006C44.8383 14.5953 45.216 14.39 45.7513 14.39C46.074 14.39 46.3527 14.5 46.5873 14.72C46.8293 14.94 46.9503 15.2223 46.9503 15.567C46.9503 15.831 46.8697 16.0583 46.7083 16.249C46.547 16.4323 46.3453 16.524 46.1033 16.524C45.8687 16.524 45.667 16.4433 45.4983 16.282C45.337 16.1207 45.2563 15.9227 45.2563 15.688C45.2563 15.4607 45.3113 15.292 45.4213 15.182C45.4873 15.1013 45.5203 15.028 45.5203 14.962C45.5203 14.9033 45.4983 14.8557 45.4543 14.819C45.4177 14.775 45.3663 14.753 45.3003 14.753C45.249 14.753 45.1977 14.7677 45.1463 14.797C44.9703 14.885 44.8383 15.0683 44.7503 15.347C44.6623 15.6183 44.6183 16.095 44.6183 16.777V18.988C44.6183 19.2593 44.666 19.461 44.7613 19.593C44.8567 19.725 44.974 19.791 45.1133 19.791V19.923C44.5413 19.8937 44.1233 19.879 43.8593 19.879C43.5953 19.879 43.1737 19.8937 42.5943 19.923V19.791ZM49.7283 23.014C50.4983 22.7793 51.0777 22.332 51.4663 21.672C51.8623 21.0193 52.0933 20.286 52.1593 19.472C52.0053 19.6627 51.8073 19.813 51.5653 19.923C51.3307 20.0257 51.0813 20.077 50.8173 20.077C50.502 20.077 50.205 20 49.9263 19.846C49.6477 19.6847 49.4203 19.4353 49.2443 19.098C49.0757 18.7607 48.9913 18.3427 48.9913 17.844L48.9803 15.457C48.9803 15.1857 48.9327 14.984 48.8373 14.852C48.742 14.72 48.6247 14.654 48.4853 14.654V14.522C48.5733 14.5293 48.698 14.533 48.8593 14.533C48.9987 14.533 49.1783 14.5257 49.3983 14.511C49.6037 14.4963 49.754 14.489 49.8493 14.489C50.04 14.489 50.194 14.5807 50.3113 14.764C50.436 14.9473 50.4983 15.1783 50.4983 15.457L50.5093 17.283C50.5093 17.877 50.535 18.3427 50.5863 18.68C50.6377 19.0173 50.7147 19.2593 50.8173 19.406C50.9273 19.5527 51.074 19.626 51.2573 19.626C51.3673 19.626 51.4883 19.571 51.6203 19.461C51.7523 19.351 51.8697 19.164 51.9723 18.9C52.0823 18.6287 52.1483 18.273 52.1703 17.833V15.457C52.1703 15.1857 52.1227 14.984 52.0273 14.852C51.932 14.72 51.8147 14.654 51.6753 14.654V14.522C51.822 14.5367 51.9467 14.544 52.0493 14.544C52.3207 14.544 52.6067 14.5257 52.9073 14.489C53.2153 14.445 53.4757 14.3863 53.6883 14.313L53.8203 14.346C53.769 14.4267 53.736 14.544 53.7213 14.698C53.7067 14.8447 53.6993 15.0537 53.6993 15.325L53.7103 18.768C53.7103 19.8093 53.505 20.649 53.0943 21.287C52.6837 21.925 52.174 22.376 51.5653 22.64C50.964 22.9113 50.3517 23.047 49.7283 23.047V23.014Z" fill="#E8B94D"/>
</svg>
