<svg width="54" height="20" viewBox="0 0 54 20" fill="none" xmlns="http://www.w3.org/2000/svg">
<g clip-path="url(#clip0)">
<path d="M53.8922 4.47917C53.5875 2.45025 52.5081 1.06025 50.5094 0.418715C49.5088 0.103163 48.4754 0.0131919 47.434 0.011888C44.5345 0.00580296 41.6355 0.00580296 38.7369 0.011888C38.6424 0.011888 38.5478 0.0197116 38.4546 0.011888C38.2642 0.00145651 38.2011 0.0823005 38.2051 0.272675C38.2169 0.813808 38.2051 1.35624 38.2051 1.89738C38.2051 2.3342 38.2051 2.3368 38.6489 2.3368C41.579 2.3368 44.5092 2.3368 47.4393 2.3368C48.1327 2.32371 48.8251 2.3982 49.4996 2.55847C50.5068 2.81926 51.2763 3.34083 51.56 4.40354C51.6716 4.82341 51.6755 4.82601 51.2501 4.82601C48.214 4.82601 45.1784 4.82601 42.1433 4.82601C41.5553 4.82488 40.9686 4.88078 40.3915 4.99292C38.6358 5.33846 37.6785 6.29816 37.3581 8.05716C37.2474 8.72598 37.235 9.40722 37.3213 10.0796C37.5012 11.729 38.427 12.8178 40.0317 13.2664C40.753 13.4533 41.4963 13.5432 42.2418 13.5337C43.9843 13.5454 45.7282 13.5337 47.4721 13.5337H53.5218C53.9906 13.5337 53.9933 13.5337 53.9933 13.0591C53.9933 10.7459 53.9933 8.4327 53.9933 6.11952C53.9999 5.57102 53.9661 5.02277 53.8922 4.47917ZM51.7031 10.8684C51.7031 11.1292 51.6388 11.2049 51.3722 11.2036C49.7334 11.1905 48.0893 11.2036 46.4557 11.2036V11.1801C44.8497 11.1801 43.2424 11.1801 41.6351 11.1801C41.2885 11.1721 40.9448 11.1145 40.6147 11.0093C40.0803 10.8476 39.7651 10.5086 39.6955 9.94526C39.6364 9.51293 39.6306 9.07504 39.6785 8.64133C39.7809 7.78725 40.2221 7.39476 41.1899 7.24742C41.616 7.18533 42.0462 7.15569 42.4768 7.15875C45.4288 7.15875 48.3795 7.15875 51.3315 7.15093C51.644 7.15093 51.7123 7.2409 51.7084 7.54211C51.686 8.64263 51.6887 9.75228 51.7031 10.8724V10.8684Z" fill="#E8B94D"/>
<path d="M20.6455 8.60615C23.7117 8.61658 26.7779 8.61267 29.8442 8.61267C30.4426 8.6149 31.0395 8.55061 31.6235 8.42099C33.0811 8.08979 34.1094 7.29309 34.456 5.78965C34.6954 4.77085 34.6828 3.70963 34.4193 2.69672C34.1277 1.57664 33.4213 0.820357 32.3261 0.420049C31.684 0.188788 31.0088 0.0611243 30.3261 0.0419077C28.2684 -0.0311126 26.2107 0.0158294 24.1542 0.0158294C23.4796 0.0180972 22.807 0.0910871 22.1477 0.233586C20.0204 0.683444 18.6022 1.87915 18.1308 4.03586C17.7435 5.83365 17.7435 7.69243 18.1308 9.49022C18.4223 10.888 19.1524 12.0094 20.4537 12.707C21.373 13.1999 22.3788 13.4125 23.411 13.4894C25.1181 13.612 26.8331 13.5102 28.2329 13.5455C30.2762 13.5455 32.0096 13.5455 33.7482 13.5455C33.9925 13.5455 34.0778 13.4881 34.0686 13.2351C34.0503 12.6836 34.0463 12.1307 34.0686 11.5791C34.0818 11.2883 33.9872 11.2192 33.7023 11.2205C30.6155 11.231 27.5282 11.231 24.4405 11.2205C23.8281 11.2266 23.2166 11.1715 22.6152 11.0562C21.4268 10.8163 20.631 10.1709 20.3605 8.953C20.3001 8.67004 20.3448 8.60485 20.6455 8.60615ZM20.1832 5.9709C20.2214 5.49234 20.288 5.01644 20.3828 4.5457C20.6796 3.29914 21.5305 2.66282 22.7465 2.4268C23.2512 2.32748 23.7645 2.27726 24.279 2.27685C26.1997 2.27685 28.1209 2.28207 30.0425 2.2925C30.4204 2.29901 30.7958 2.35558 31.1587 2.46071C31.7575 2.6237 32.116 3.00575 32.1961 3.6186C32.2539 4.07361 32.2539 4.53403 32.1961 4.98904C32.1212 5.60058 31.743 5.95264 31.1626 6.10781C30.6004 6.24497 30.0225 6.30896 29.4437 6.29819C28.015 6.29819 26.5875 6.29819 25.1601 6.29819C23.6053 6.29819 22.0519 6.29036 20.4984 6.29819C20.2161 6.30862 20.1543 6.21473 20.1832 5.9709Z" fill="#E8B94D"/>
<path d="M2.32301 10.474L4.19689 8.69546L13.1895 0.170332C13.2238 0.124448 13.2675 0.0863128 13.3177 0.0584419C13.368 0.030571 13.4236 0.0135981 13.481 0.00864401C14.5184 0.00864401 15.5558 0.00864401 16.5669 0.00864401C16.194 0.408952 15.8447 0.819692 15.4573 1.19262C13.6477 2.93207 11.8251 4.65717 10.009 6.39271C9.833 6.56222 9.50471 6.70044 9.53229 6.9208C9.5533 7.09944 9.85532 7.24678 10.0392 7.39935L17.1145 13.2723C17.1933 13.3388 17.2708 13.4027 17.3509 13.477C17.2865 13.5826 17.1946 13.5331 17.1224 13.5331C16.1152 13.5331 15.1067 13.5331 14.1021 13.5409C13.8941 13.5497 13.6908 13.4782 13.5348 13.3414C11.7253 11.8201 9.91267 10.3028 8.097 8.78934C7.73719 8.48813 7.74507 8.48813 7.39576 8.82063C5.80683 10.3397 4.20477 11.8484 2.61847 13.3662C2.55729 13.4279 2.48334 13.4758 2.40172 13.5064C2.3201 13.537 2.23276 13.5497 2.14573 13.5435C1.54693 13.537 0.948122 13.5265 0.349319 13.5435C0.0748671 13.5539 -0.00129655 13.4822 1.662e-05 13.2019C0.0105219 9.82597 1.662e-05 6.45008 1.662e-05 3.07419C1.662e-05 2.14579 0.00920878 1.2187 1.662e-05 0.291598C1.662e-05 0.0490663 0.0761802 -0.00700316 0.303358 -0.000483488C0.891656 0.0177716 1.47952 0.0216834 2.06694 0.0112519C2.26785 0.0112519 2.30594 0.0673213 2.30594 0.259C2.29806 3.48841 2.29806 6.71869 2.30594 9.94984C2.302 10.0985 2.31381 10.2419 2.32301 10.474Z" fill="#E8B94D"/>
<path d="M45.894 19.5551C45.7102 18.851 45.5172 18.1495 45.3294 17.4467C45.1981 16.9786 45.1981 16.9877 44.7096 16.9864C44.6745 16.9798 44.6385 16.9808 44.6039 16.9893C44.5693 16.9978 44.5369 17.0136 44.509 17.0356C44.4811 17.0576 44.4583 17.0853 44.4421 17.1169C44.426 17.1485 44.4169 17.1831 44.4154 17.2185C44.3301 17.5927 44.2211 17.9617 44.12 18.3333C44.0044 18.7584 43.8862 19.1835 43.747 19.6881C43.4844 19.2096 43.2795 18.8041 43.0524 18.409C43.0119 18.3508 42.9917 18.2811 42.9948 18.2105C42.9979 18.1399 43.0241 18.0723 43.0694 18.0178C43.29 17.6944 43.4962 17.3658 43.7024 17.0372C43.2546 16.886 42.9801 17.0372 42.795 17.4284C42.6638 17.6607 42.5186 17.885 42.3603 18.0999C42.3603 17.7479 42.3419 17.491 42.3603 17.238C42.3787 16.9851 42.229 16.9981 42.0504 16.9929C41.8718 16.9877 41.7405 17.0033 41.7458 17.2537C41.7602 18.0243 41.7576 18.7949 41.7458 19.5643C41.7458 19.7729 41.818 19.8172 42.0176 19.825C42.2986 19.8433 42.38 19.7533 42.3643 19.4782C42.3485 19.2265 42.2684 18.9332 42.5744 18.7415C42.6365 18.8291 42.6881 18.9236 42.728 19.0231C42.9079 19.722 43.3675 19.9268 44.0517 19.8277C44.2618 19.7977 44.3721 19.7651 44.4062 19.5447C44.4233 19.4391 44.38 19.2591 44.5586 19.2435C44.7559 19.216 44.9565 19.2213 45.1521 19.2591C45.3163 19.3022 45.2388 19.5199 45.3058 19.6399C45.3149 19.6581 45.3058 19.6842 45.3202 19.6999C45.4515 19.9294 45.68 19.8107 45.8547 19.8003C46.0293 19.7898 45.9151 19.636 45.894 19.5551ZM45.0431 18.7337C44.9106 18.761 44.7738 18.761 44.6413 18.7337C44.5389 18.7115 44.6111 18.6111 44.6229 18.5498C44.6859 18.2382 44.7542 17.9278 44.8238 17.6175H44.8645C44.9341 17.9265 45.0064 18.2342 45.0681 18.5446C45.0799 18.6072 45.1377 18.7141 45.0431 18.7337Z" fill="#E8B94D"/>
<path d="M51.7154 18.7755C51.8099 18.3348 51.9018 17.8941 51.999 17.4546C52.0345 17.2995 51.999 17.0635 52.154 17.0152C52.3785 16.9539 52.632 16.9917 52.8723 17.0009C52.976 17.0009 52.9563 17.1052 52.9563 17.173C52.9563 17.9958 52.9563 18.8172 52.9563 19.64C52.9563 19.9008 52.7633 19.7939 52.6385 19.8108C52.5138 19.8278 52.3995 19.8108 52.4048 19.6179C52.4179 19.1915 52.4127 18.7651 52.4127 18.3387C52.4337 18.1999 52.4102 18.0581 52.3457 17.9332C52.2144 18.5017 52.0923 19.0285 51.9793 19.5592C51.9426 19.7326 51.8835 19.82 51.6773 19.82C51.4711 19.82 51.4147 19.7104 51.3805 19.5488C51.2492 18.9737 51.1179 18.3987 50.9406 17.8315C50.9406 18.4065 50.9314 18.9815 50.9406 19.5566C50.9406 19.7691 50.8684 19.8174 50.6688 19.8174C50.4902 19.8174 50.3865 19.8056 50.3904 19.5709C50.4048 18.8003 50.397 18.0297 50.3799 17.2603C50.3799 17.0361 50.4521 16.9813 50.6675 16.9839C51.261 16.9904 51.2623 16.9839 51.3884 17.5642C51.4759 17.9658 51.5604 18.367 51.6418 18.7677L51.7154 18.7755Z" fill="#E8B94D"/>
<path d="M9.91191 18.6633C9.91191 18.1834 9.92504 17.7049 9.90534 17.2289C9.89615 16.9864 10.0248 16.9942 10.1955 16.989C10.3663 16.9838 10.4792 17.0086 10.4753 17.2355C10.4595 17.997 10.4753 18.7571 10.4647 19.5173C10.4647 19.6217 10.5475 19.8186 10.3426 19.8042C10.1378 19.7899 9.84625 19.975 9.72412 19.6295C9.55735 19.1588 9.38664 18.6893 9.21724 18.2199C9.19472 18.153 9.14791 18.0967 9.08592 18.0622C9.08592 18.5524 9.07673 19.044 9.08592 19.5343C9.08592 19.7468 9.03734 19.8251 8.80885 19.8238C8.58036 19.8225 8.52389 19.7455 8.52652 19.533C8.53571 18.7832 8.52652 18.0335 8.52652 17.2837C8.52652 17.1781 8.45298 16.9812 8.65783 17.0034C8.86269 17.0255 9.15421 16.8312 9.27896 17.1703C9.44573 17.6306 9.61119 18.0908 9.77928 18.5511C9.79503 18.5955 9.81998 18.6385 9.83968 18.6815L9.91191 18.6633Z" fill="#E8B94D"/>
<path d="M3.81988 17.2288C3.79987 17.1877 3.79069 17.1422 3.79322 17.0965C3.79575 17.0509 3.80989 17.0067 3.83432 16.968C3.83999 16.9558 3.84298 16.9425 3.84309 16.929C3.8432 16.9156 3.84043 16.9022 3.83497 16.8899C3.82951 16.8776 3.82148 16.8665 3.81141 16.8575C3.80134 16.8485 3.78945 16.8417 3.77655 16.8376C3.72664 16.8115 3.66493 16.7959 3.64523 16.8559C3.57432 17.0515 3.43906 16.9719 3.30906 16.951C2.79692 16.8676 2.37671 17.0241 2.24408 17.3996C2.02476 18.0553 2.02476 18.7637 2.24408 19.4194C2.29004 19.568 2.4358 19.6802 2.336 19.8693C2.28085 19.9749 2.45287 20.027 2.47651 19.984C2.64197 19.6841 2.89278 19.9436 3.06087 19.8745C3.6426 19.8745 3.93938 19.6802 4.00504 19.143C4.07726 18.5014 4.18231 17.8364 3.81988 17.2288ZM2.72995 17.7308C2.72884 17.6462 2.75789 17.564 2.81196 17.4986C2.86603 17.4332 2.94163 17.3889 3.02541 17.3735C3.07208 17.3636 3.12048 17.3653 3.16631 17.3785C3.21214 17.3917 3.25397 17.416 3.28805 17.4492C3.37603 17.5274 3.30775 17.603 3.27754 17.6734C3.11077 18.0646 2.94006 18.4467 2.73914 18.9056C2.64066 18.4519 2.69712 18.0894 2.72995 17.7308ZM3.40886 19.156C3.36946 19.3255 3.27754 19.4403 3.08845 19.4363C2.89935 19.4324 2.77723 19.3764 2.87834 19.1508C3.05168 18.7596 3.21845 18.3684 3.38653 17.9772C3.48562 18.3632 3.49326 18.7666 3.40886 19.156Z" fill="#E8B94D"/>
<path d="M5.86847 18.3165C6.181 18.0361 6.27161 17.7388 6.1311 17.4037C5.99059 17.0686 5.68856 16.9943 5.35765 16.9917C5.10683 16.9917 4.8547 17.0008 4.60389 16.9917C4.42136 16.9813 4.37015 17.0543 4.37277 17.2251C4.38065 17.7649 4.37277 18.3061 4.37277 18.8459C4.37277 19.1562 4.24146 19.5604 4.42924 19.7495C4.61702 19.9386 5.0438 19.8082 5.36421 19.8147C5.83827 19.8238 6.10615 19.6609 6.21908 19.3283C6.36222 18.9267 6.24009 18.5851 5.86847 18.3165ZM4.97552 17.7949C5.02542 17.6437 4.86784 17.4037 5.20007 17.4181C5.43906 17.4311 5.58614 17.5289 5.59402 17.7675C5.6019 18.0062 5.44038 18.1274 5.18825 18.1352C4.87178 18.1496 5.03461 17.9149 4.97552 17.8014V17.7949ZM5.65968 19.0102C5.65266 19.0729 5.63246 19.1335 5.60038 19.188C5.56829 19.2425 5.52505 19.2898 5.47344 19.3266C5.42182 19.3635 5.36299 19.3892 5.30075 19.4021C5.2385 19.4149 5.17423 19.4147 5.11208 19.4014C5.04117 19.3896 4.98865 19.3701 4.98077 19.2918C4.98077 19.0845 4.98077 18.8759 4.98077 18.6673C4.98077 18.5173 5.11208 18.5642 5.18431 18.5525C5.51129 18.5577 5.68594 18.7311 5.65968 19.0167V19.0102Z" fill="#E8B94D"/>
<path d="M18.7351 18.7117C18.7351 18.1992 18.7469 17.7181 18.7351 17.2369C18.7272 17.0126 18.8257 16.9761 19.0148 16.9866C19.1802 16.9931 19.3089 16.9761 19.3037 17.2226C19.2879 18.0049 19.2932 18.7873 19.3037 19.5697C19.3037 19.7496 19.2656 19.8122 19.0647 19.8304C18.7311 19.8578 18.5591 19.7561 18.4659 19.421C18.3304 18.9557 18.1487 18.505 17.9235 18.0753C17.9235 18.5708 17.9117 19.0663 17.9235 19.5605C17.9327 19.8004 17.8251 19.8213 17.6268 19.8278C17.4285 19.8344 17.3641 19.7626 17.372 19.5579C17.3865 18.7977 17.372 18.0388 17.3812 17.2799C17.3812 17.1743 17.2932 16.9813 17.5125 17.0074C17.7318 17.0335 17.9918 16.8431 18.1126 17.1626C18.2794 17.5994 18.4344 18.0401 18.5946 18.4796C18.6113 18.5714 18.6613 18.6539 18.7351 18.7117Z" fill="#E8B94D"/>
<path d="M34.959 19.0986C34.9301 18.8939 34.959 18.6592 34.7659 18.5262C34.6215 18.4245 34.653 18.3958 34.7659 18.2941C35.0286 18.0398 35.0391 17.7177 34.9156 17.3943C34.8053 17.1023 34.5558 17.0032 34.2591 16.9927C33.9439 16.9849 33.6287 16.9927 33.3136 16.9927C33.1928 16.9927 33.11 17.011 33.1113 17.1583C33.1183 17.9824 33.1219 18.8056 33.1219 19.628C33.1219 19.9005 33.3241 19.8014 33.4593 19.8158C33.5946 19.8301 33.7325 19.8314 33.722 19.6176C33.7075 19.3568 33.722 19.096 33.7154 18.8352C33.7088 18.6657 33.7771 18.6214 33.936 18.6253C34.2643 18.6344 34.3549 18.7557 34.3575 19.2081C34.3575 19.8601 34.3575 19.8601 35.043 19.7923C34.938 19.5576 34.997 19.3242 34.959 19.0986ZM33.936 18.2276C33.7246 18.2276 33.7246 18.2276 33.7246 17.779C33.7732 17.6617 33.5933 17.4009 33.9491 17.4204C34.2472 17.4374 34.3825 17.5508 34.3785 17.8233C34.3746 18.0959 34.2249 18.2276 33.936 18.2276Z" fill="#E8B94D"/>
<path d="M26.8803 18.3686C26.8803 17.993 26.8948 17.6175 26.8803 17.2446C26.8672 16.9968 26.992 16.9838 27.185 16.9838C27.378 16.9838 27.5251 16.9616 27.4949 17.2289C27.4739 17.4245 27.508 17.6201 27.487 17.8222C27.4581 18.0974 27.638 18.0622 27.8048 18.0595C27.9716 18.0569 28.1607 18.113 28.1331 17.8314C28.1187 17.6775 28.1331 17.5197 28.1331 17.3632C28.1331 16.9916 28.2552 16.9043 28.6242 16.9864C28.7398 17.0125 28.7437 17.0803 28.7437 17.1663C28.7437 17.9896 28.7437 18.8119 28.7437 19.6334C28.7437 19.9085 28.5284 19.7899 28.397 19.8068C28.2657 19.8238 28.12 19.829 28.1344 19.6138C28.1475 19.3752 28.1226 19.134 28.141 18.8954C28.1594 18.6567 28.1042 18.5459 27.8232 18.5498C27.5606 18.5498 27.466 18.6176 27.4936 18.881C27.5159 19.0975 27.4791 19.3191 27.5028 19.533C27.5317 19.7938 27.4004 19.8081 27.1902 19.8146C26.9578 19.8225 26.8751 19.756 26.8869 19.5173C26.8948 19.1405 26.8803 18.7493 26.8803 18.3686Z" fill="#E8B94D"/>
<path d="M10.8571 18.3845C10.8571 17.9933 10.8676 17.5917 10.8571 17.1966C10.8479 16.958 10.9976 16.9866 11.1434 16.9906C11.2892 16.9945 11.4783 16.9358 11.4586 17.2005C11.4454 17.3661 11.4586 17.533 11.4586 17.6999C11.4586 18.0285 11.7212 18.185 12.0324 18.0559C12.1296 18.0154 12.1112 17.9437 12.1125 17.8759C12.1125 17.6986 12.1125 17.5213 12.1125 17.3452C12.1125 17.014 12.3056 16.8836 12.6207 16.9919C12.735 17.031 12.7166 17.1223 12.7166 17.1953C12.7166 17.9868 12.7166 18.7782 12.7166 19.5697C12.7166 19.8592 12.534 19.7992 12.3607 19.8175C12.1414 19.8383 12.0981 19.7392 12.1059 19.5463C12.1191 19.2855 12.0968 19.0247 12.1125 18.7639C12.1283 18.5031 11.9615 18.5514 11.8223 18.5657C11.6831 18.58 11.4546 18.4627 11.4546 18.7561C11.4546 19.0495 11.4441 19.3194 11.4546 19.5997C11.4651 19.8801 11.2878 19.8084 11.1368 19.8123C10.9858 19.8162 10.844 19.8344 10.8519 19.601C10.8663 19.1968 10.8571 18.79 10.8571 18.3845Z" fill="#E8B94D"/>
<path d="M26.1528 18.4169C26.3031 18.3047 26.4135 18.148 26.468 17.9693C26.5226 17.7907 26.5184 17.5994 26.4561 17.4233C26.3563 17.1338 26.1016 16.9943 25.6682 16.9917C25.3951 16.9917 25.122 16.9917 24.8501 16.9917C24.6991 16.9917 24.6519 17.0412 24.6519 17.1886C24.6519 18.0009 24.661 18.812 24.6519 19.623C24.6519 19.8421 24.7832 19.8278 24.9145 19.8134C25.0458 19.7991 25.2572 19.906 25.2559 19.6322C25.2559 19.3935 25.2559 19.1536 25.2559 18.915C25.2559 18.8042 25.1942 18.6412 25.4004 18.632C25.6065 18.6229 25.7943 18.632 25.8508 18.8668C25.8806 19.0092 25.8959 19.1542 25.8967 19.2997C25.9151 19.846 25.9138 19.846 26.464 19.8134C26.5025 19.8073 26.5403 19.7977 26.577 19.7847C26.3235 19.3557 26.7096 18.7494 26.1528 18.4169ZM25.4516 18.2343C25.1075 18.2343 25.294 17.9736 25.2323 17.8327C25.2809 17.671 25.1141 17.4037 25.4818 17.4233C25.7444 17.4376 25.8967 17.538 25.9086 17.8067C25.9204 18.0753 25.7418 18.2278 25.4516 18.2343Z" fill="#E8B94D"/>
<path d="M48.033 17.6879C47.9372 17.2276 47.6772 17.0098 47.2005 16.9929C46.9589 16.9837 46.7172 17.0033 46.4769 16.9863C46.2616 16.972 46.1789 17.0333 46.1894 17.2602C46.2077 17.6344 46.1894 18.0099 46.1894 18.3842C46.1894 18.7753 46.1985 19.177 46.1894 19.572C46.1894 19.7676 46.2537 19.8328 46.4428 19.8172C46.6844 19.8041 46.926 19.8172 47.1677 19.8172C47.6443 19.8172 47.9214 19.6046 48.0186 19.1496C48.1263 18.6687 48.1313 18.1707 48.033 17.6879ZM47.4539 19.0101C47.4532 19.0943 47.4239 19.1759 47.3708 19.2417C47.3176 19.3074 47.2438 19.3535 47.1611 19.3725C46.842 19.4456 46.7672 19.3973 46.7672 19.0713V18.4194C46.7672 18.2016 46.754 17.9812 46.7672 17.7674C46.7777 17.6566 46.6608 17.4727 46.884 17.4427C47.0757 17.4179 47.2688 17.4349 47.3791 17.6305C47.4155 17.6943 47.44 17.7641 47.4513 17.8365C47.5047 18.2258 47.5055 18.6205 47.4539 19.0101Z" fill="#E8B94D"/>
<path d="M1.94355 17.0241C1.73738 17.3474 1.5496 17.663 1.3408 17.9551C1.2776 18.0292 1.24194 18.1226 1.23979 18.2197C1.23764 18.3167 1.26912 18.4116 1.32899 18.4884C1.57323 18.9083 1.79253 19.3412 2.02759 19.7806C1.41172 19.8627 1.41172 19.8627 1.1504 19.3711C1.03878 19.1612 0.92847 18.95 0.812912 18.7322C0.516136 18.9317 0.585734 19.2186 0.587047 19.4781C0.587047 19.6802 0.597553 19.8275 0.30209 19.8249C0.0394573 19.8249 -0.0012509 19.7206 0.00268859 19.495C0.0145071 18.7453 0.0171334 17.9955 0.00268859 17.247C0.00268859 17.0045 0.102489 16.9863 0.299464 16.9863C0.496439 16.9863 0.608058 17.0254 0.589674 17.2575C0.568819 17.5135 0.587865 17.7713 0.64614 18.0216C0.786026 17.8356 0.912408 17.6399 1.02433 17.4361C1.2108 17.0423 1.48263 16.8963 1.94355 17.0241Z" fill="#E8B94D"/>
<path d="M38.2642 19.8748C37.6693 19.8748 37.3988 19.6688 37.345 19.1681C37.3318 19.0559 37.2937 18.9008 37.4763 18.9373C37.6325 18.9673 37.8794 18.7756 37.9346 19.0833C37.9595 19.2242 37.9779 19.3624 38.1289 19.4093C38.3062 19.4654 38.4913 19.4732 38.5938 19.2789C38.6192 19.2418 38.6367 19.1999 38.6451 19.1558C38.6535 19.1117 38.6527 19.0663 38.6428 19.0226C38.6328 18.9788 38.6138 18.9375 38.5871 18.9013C38.5604 18.8651 38.5264 18.8347 38.4874 18.8121C38.3142 18.7157 38.1332 18.6337 37.9464 18.567C37.5787 18.4209 37.366 18.1758 37.3778 17.7637C37.3896 17.396 37.5406 17.1183 37.84 17.0179C38.234 16.8875 38.6279 16.8875 38.9667 17.1678C39.0468 17.2351 39.1022 17.3268 39.1243 17.4286C39.144 17.5499 39.2674 17.7559 39.0416 17.7794C38.8905 17.795 38.6266 17.9476 38.5728 17.6073C38.5642 17.5384 38.529 17.4755 38.4746 17.432C38.4202 17.3884 38.3508 17.3676 38.2812 17.3739C38.223 17.369 38.1648 17.3835 38.1158 17.4151C38.0668 17.4468 38.0298 17.4937 38.0107 17.5486C37.9648 17.7038 37.9516 17.8746 38.1079 17.9724C38.2706 18.0654 38.4401 18.1465 38.6148 18.2149C39.1781 18.464 39.3502 18.7456 39.2425 19.2424C39.1479 19.674 38.838 19.8761 38.2642 19.8748Z" fill="#E8B94D"/>
<path d="M20.4801 19.876C19.897 19.876 19.5963 19.6426 19.5609 19.1615C19.5517 19.0454 19.5346 18.9007 19.7132 18.9359C19.8668 18.9698 20.1203 18.7716 20.1636 19.0898C20.1859 19.2462 20.2227 19.3818 20.3921 19.4223C20.5615 19.4627 20.7335 19.4483 20.8254 19.2658C20.8498 19.228 20.866 19.1856 20.8733 19.1414C20.8805 19.0971 20.8785 19.0518 20.8674 19.0083C20.8563 18.9648 20.8364 18.924 20.8089 18.8885C20.7813 18.8529 20.7467 18.8234 20.7073 18.8016C20.5317 18.7097 20.3506 18.6287 20.1649 18.559C19.7355 18.3713 19.5989 18.1679 19.6081 17.7193C19.616 17.3868 19.7513 17.1221 20.073 17.0126C20.4669 16.8822 20.8609 16.8822 21.1971 17.1691C21.2878 17.2422 21.3467 17.3473 21.3612 17.4624C21.3717 17.5785 21.4755 17.7728 21.2562 17.7806C21.1065 17.7806 20.8622 17.9345 20.8044 17.6202C20.7933 17.5534 20.7596 17.4922 20.7089 17.4469C20.6581 17.4016 20.5934 17.3748 20.5252 17.3708C20.4571 17.3669 20.3896 17.3861 20.334 17.4252C20.2783 17.4644 20.2376 17.5212 20.2188 17.5863C20.1887 17.655 20.1842 17.7321 20.2061 17.8037C20.228 17.8754 20.2748 17.937 20.3383 17.9775C20.5007 18.0715 20.6701 18.153 20.8451 18.2213C21.4032 18.4665 21.5687 18.7286 21.4663 19.2188C21.3691 19.6791 21.0749 19.876 20.4801 19.876Z" fill="#E8B94D"/>
<path d="M14.5039 17.4608C14.3726 16.9484 14.3423 16.9393 13.7974 16.9875C13.7515 16.9852 13.7064 17.0001 13.6711 17.0294C13.6358 17.0586 13.6129 17.1 13.607 17.1453C13.389 17.9694 13.1605 18.7922 12.9386 19.6228C12.9215 19.6867 12.8874 19.7636 12.9832 19.8118C13.1986 19.9214 13.5361 19.7792 13.5636 19.5302C13.6044 19.156 13.8696 19.259 14.0889 19.2342C14.3358 19.2081 14.4343 19.3111 14.4474 19.5419C14.4592 19.7493 14.5551 19.8627 14.7888 19.8236C14.9024 19.8142 15.0166 19.8142 15.1302 19.8236C14.9188 19.0099 14.71 18.2276 14.5039 17.4608ZM14.1966 18.7322C14.0664 18.7599 13.9316 18.7572 13.8026 18.7244C13.7199 18.7022 13.7829 18.6005 13.8026 18.5353C13.8683 18.2341 13.934 17.9342 14.0022 17.633L14.0508 17.6408C14.1165 17.9329 14.1821 18.2237 14.2478 18.517C14.2517 18.5914 14.3016 18.7087 14.1966 18.7322Z" fill="#E8B94D"/>
<path d="M41.4949 19.4759C41.2992 18.807 41.1324 18.1315 40.9512 17.4587C40.8199 16.9502 40.7858 16.9371 40.2447 16.988C40.1986 16.9858 40.1533 17.0005 40.1175 17.0294C40.0816 17.0582 40.0578 17.0992 40.0504 17.1444C39.8285 17.979 39.6039 18.8122 39.3833 19.6454C39.3689 19.6988 39.3203 19.7562 39.403 19.8045C39.6157 19.9283 39.9913 19.7745 40.0149 19.5254C40.0412 19.2516 40.1883 19.2164 40.4168 19.2294C40.6452 19.2425 40.8974 19.1708 40.9013 19.5293C40.9013 19.7432 40.9998 19.8657 41.2414 19.8071C41.5645 19.8788 41.5737 19.7406 41.4949 19.4759ZM40.4128 18.7496C40.2815 18.7809 40.187 18.7339 40.225 18.567C40.2946 18.2671 40.3563 17.9672 40.4286 17.666L40.4864 17.6582C40.5726 17.9822 40.6423 18.3103 40.6951 18.6414C40.7201 18.8513 40.5113 18.7235 40.4128 18.7496Z" fill="#E8B94D"/>
<path d="M22.7219 18.4283C22.7219 18.0371 22.7284 17.6368 22.7219 17.2417C22.7219 17.0604 22.7599 16.9809 22.9648 16.9809C23.3526 16.9957 23.7409 16.9957 24.1296 16.9809C24.3331 16.9731 24.3436 17.0735 24.3423 17.2273C24.341 17.3812 24.3331 17.4881 24.1283 17.4777C23.9234 17.4673 23.7501 17.4907 23.5623 17.4777C23.2905 17.4503 23.3141 17.6224 23.322 17.7932C23.3299 17.9641 23.2589 18.1479 23.5491 18.1179C23.7159 18.101 23.8853 18.1244 24.0521 18.1179C24.2189 18.1114 24.2977 18.161 24.2898 18.3435C24.2819 18.5039 24.2898 18.6382 24.0613 18.6134C23.947 18.6004 23.8289 18.6252 23.7159 18.6134C23.4086 18.5704 23.2996 18.6669 23.3075 18.9955C23.3154 19.2954 23.3889 19.4127 23.6949 19.3697C23.8499 19.3488 24.0101 19.3697 24.1663 19.3697C24.3502 19.3554 24.3948 19.4349 24.3975 19.6057C24.4001 19.7765 24.3239 19.8352 24.1545 19.8313C23.7606 19.8222 23.3574 19.8209 22.9582 19.8313C22.7796 19.8313 22.7179 19.7752 22.7219 19.5992C22.7284 19.1976 22.7219 18.8129 22.7219 18.4283Z" fill="#E8B94D"/>
<path d="M31.205 18.3972C31.205 18.006 31.2168 17.6279 31.205 17.2432C31.1958 17.0307 31.2746 16.9824 31.4742 16.9824C31.8616 16.9955 32.2503 16.9942 32.6376 16.9824C32.8175 16.9824 32.8491 17.0607 32.8412 17.2093C32.8333 17.358 32.8635 17.491 32.6442 17.4779C32.4774 17.4675 32.3093 17.4779 32.1413 17.4779C32.0749 17.4795 32.01 17.4984 31.9533 17.5327C31.8966 17.567 31.85 17.6156 31.8182 17.6735C31.7864 17.7314 31.7705 17.7965 31.7721 17.8625C31.7737 17.9284 31.7928 17.9928 31.8274 18.049C31.8681 18.1195 31.9298 18.1103 31.9889 18.1116C32.1202 18.1116 32.2621 18.1025 32.3973 18.1116C32.5588 18.126 32.7821 18.0073 32.7847 18.345C32.7873 18.6828 32.5549 18.581 32.3816 18.6058C32.3188 18.6143 32.2552 18.6143 32.1925 18.6058C31.8918 18.5563 31.8077 18.6723 31.7985 18.9761C31.792 19.306 31.9023 19.4025 32.2109 19.3673C32.3422 19.3491 32.484 19.3673 32.6192 19.3673C32.79 19.3543 32.8622 19.4103 32.8596 19.5929C32.8569 19.7755 32.8136 19.8341 32.6284 19.8289C32.2345 19.8185 31.8313 19.8185 31.4335 19.8289C31.2536 19.8289 31.1984 19.7715 31.2023 19.5968C31.2128 19.1887 31.205 18.7936 31.205 18.3972Z" fill="#E8B94D"/>
<path d="M16.1692 18.8797C16.2861 18.3229 16.4161 17.7687 16.5119 17.2094C16.5763 16.8338 16.8534 17.0007 17.0267 17.0072C17.2552 17.0072 17.1226 17.2002 17.0976 17.3098C16.9269 18.07 16.7457 18.8275 16.5723 19.589C16.5706 19.6246 16.5611 19.6594 16.5446 19.691C16.5281 19.7226 16.5049 19.7504 16.4766 19.7723C16.4483 19.7942 16.4156 19.8098 16.3806 19.818C16.3457 19.8262 16.3094 19.8268 16.2743 19.8198C15.6177 19.8003 15.7792 19.8955 15.6334 19.3152C15.4653 18.6398 15.3082 17.9617 15.162 17.2811C15.1436 17.1963 14.9939 16.9994 15.2264 17.0059C15.4049 17.0059 15.6925 16.8221 15.7634 17.182C15.8667 17.7122 15.97 18.2425 16.0733 18.7728C16.0812 18.8106 16.0917 18.8484 16.1009 18.8862L16.1692 18.8797Z" fill="#E8B94D"/>
<path d="M35.1743 16.9906C35.3055 16.9986 35.4371 16.9986 35.5683 16.9906C35.7771 16.9619 35.8309 17.0662 35.8677 17.2514C35.9688 17.8134 36.083 18.3728 36.238 18.9387C36.3404 18.4536 36.4433 17.9685 36.5466 17.4835C36.6608 16.9345 36.6608 16.9345 37.2531 17.031C37.0482 17.902 36.8394 18.7705 36.6424 19.6389C36.641 19.667 36.6334 19.6944 36.6202 19.7193C36.607 19.7442 36.5886 19.7659 36.5661 19.783C36.5436 19.8001 36.5177 19.8122 36.49 19.8184C36.4624 19.8246 36.4338 19.8247 36.4061 19.8188C36.2801 19.8123 36.1539 19.8123 36.0279 19.8188C36.0001 19.8247 35.9713 19.8245 35.9436 19.8183C35.9159 19.812 35.8899 19.7999 35.8674 19.7826C35.8449 19.7654 35.8264 19.7434 35.8133 19.7184C35.8002 19.6933 35.7928 19.6658 35.7915 19.6376C35.5945 18.7626 35.3857 17.8942 35.1743 16.9906Z" fill="#E8B94D"/>
<path d="M29.9928 18.9384C30.1123 18.3594 30.2291 17.7792 30.3513 17.1989C30.388 17.0229 30.8253 16.8899 30.9606 17.0099C31.0223 17.0646 30.9737 17.1259 30.9606 17.1807C30.7715 18.0008 30.5771 18.8197 30.392 19.6412C30.3631 19.7716 30.3092 19.8211 30.1819 19.8133C30.1191 19.8055 30.0555 19.8055 29.9928 19.8133C29.6645 19.8759 29.5476 19.7299 29.4872 19.4143C29.3414 18.6698 29.1576 17.933 28.9724 17.1976C28.9278 17.0164 28.979 17.0007 29.1418 16.9825C29.4583 16.9473 29.6054 17.032 29.6474 17.3736C29.7117 17.8952 29.8444 18.4168 29.9468 18.9384H29.9928Z" fill="#E8B94D"/>
<path d="M6.62477 18.3662C6.62477 17.992 6.62477 17.6165 6.62477 17.2422C6.62477 17.0649 6.65235 16.9814 6.86245 16.9814C7.24984 16.9984 7.63853 16.9932 8.02723 16.9814C8.19138 16.9814 8.25835 17.0284 8.23996 17.1953C8.2242 17.34 8.24784 17.4965 8.01541 17.4769C7.83813 17.4626 7.6556 17.4913 7.47964 17.4769C7.21701 17.4456 7.19206 17.5878 7.20125 17.7938C7.20913 17.9763 7.18155 18.1563 7.46388 18.1185C7.60833 18.1002 7.75672 18.1185 7.90379 18.1185C8.07188 18.1185 8.20188 18.1067 8.20057 18.3519C8.19926 18.597 8.08895 18.6283 7.8946 18.6127C7.78955 18.6035 7.68187 18.6231 7.57944 18.6127C7.28004 18.567 7.19337 18.674 7.18549 18.9804C7.17761 19.2868 7.27741 19.4133 7.59126 19.3716C7.72729 19.3644 7.86362 19.3644 7.99965 19.3716C8.16249 19.3637 8.27804 19.3716 8.27673 19.5932C8.27542 19.8149 8.19532 19.8371 8.0141 19.8318C7.6254 19.8214 7.23714 19.8214 6.84932 19.8318C6.66942 19.8318 6.61295 19.7771 6.61689 19.601C6.63133 19.1786 6.62477 18.7731 6.62477 18.3662Z" fill="#E8B94D"/>
<path d="M48.4651 18.4025C48.4651 18.0113 48.4651 17.6123 48.4651 17.2159C48.4651 17.0712 48.4834 16.9825 48.666 16.9865C49.0744 16.9982 49.4841 16.9956 49.8938 16.9865C50.0448 16.9865 50.1065 17.0386 50.0868 17.1873C50.0671 17.3359 50.1196 17.4963 49.8767 17.4819C49.6784 17.4702 49.4828 17.4924 49.2792 17.4819C48.993 17.4611 49.056 17.6593 49.0547 17.8145C49.0534 17.9696 49.0008 18.1457 49.2687 18.1222C49.425 18.1078 49.5826 18.1222 49.7401 18.1222C49.8977 18.1222 50.0369 18.1222 50.0356 18.3582C50.0343 18.5942 49.9161 18.6333 49.7231 18.619C49.639 18.619 49.555 18.619 49.4709 18.619C49.0048 18.619 49.0704 18.5655 49.0481 19.0375C49.0363 19.2879 49.0993 19.4066 49.3725 19.3714C49.5274 19.3518 49.6876 19.3714 49.8452 19.3714C50.0028 19.3714 50.121 19.3609 50.1236 19.5891C50.1262 19.8173 50.0133 19.8342 49.836 19.8303C49.4696 19.8303 49.1019 19.8199 48.7343 19.8303C48.536 19.8369 48.4546 19.7834 48.4624 19.5695C48.4756 19.1732 48.4651 18.7885 48.4651 18.4025Z" fill="#E8B94D"/>
<path d="M53.3892 18.3882C53.3892 17.997 53.4024 17.5967 53.3892 17.2016C53.3761 16.9408 53.5508 16.9943 53.6978 16.9904C53.8449 16.9865 54.0077 16.9565 54.0038 17.2107C53.9907 18.0009 53.9907 18.7915 54.0038 19.5826C54.0038 19.8603 53.8357 19.8069 53.6729 19.8147C53.5101 19.8225 53.3761 19.8147 53.3879 19.5735C53.4037 19.1797 53.3892 18.7833 53.3892 18.3882Z" fill="#E8B94D"/>
</g>
<defs>
<clipPath id="clip0">
<rect width="54" height="20" fill="white"/>
</clipPath>
</defs>
</svg>
