<svg width="25" height="27" viewBox="0 0 25 27" fill="none" xmlns="http://www.w3.org/2000/svg">
<path fill-rule="evenodd" clip-rule="evenodd" d="M8.28525 26.7459L9.77715 20.5604C2.25536 24.491 -2.90815 17.4829 1.80779 11.3892C2.58849 10.3807 5.08996 7.9784 7.03122 6.14917C9.35954 3.95544 12.5357 0.604004 12.5357 0.604004C12.5357 0.604004 15.6399 3.95544 17.9682 6.14917C19.91 7.9784 22.4115 10.3807 23.1922 11.3892C27.9082 17.4829 22.7446 24.491 15.2223 20.5604L16.7148 26.7459H8.28525Z" fill="#E8B94D"/>
<path fill-rule="evenodd" clip-rule="evenodd" d="M4.67948 13.3282C4.67948 13.3282 5.4904 12.9865 6.14569 13.0654C6.80099 13.1442 7.45628 13.3808 7.63925 14.2108C7.82222 15.0407 7.71949 16.1879 7.45628 16.7399C7.19307 17.2918 6.64233 17.6352 6.11955 17.6352C5.21563 17.6352 4.65395 17.0943 4.65395 16.5143C4.65395 15.7387 4.67948 13.3282 4.67948 13.3282ZM2.34766 21.1368V12.3937C2.34766 12.3937 4.0096 11.8265 5.22901 11.7214C6.44781 11.6163 7.86295 11.7232 8.54317 12.1303C9.22278 12.5379 9.95649 13.1968 10.0744 14.2896C10.1917 15.3824 10.0495 16.1855 9.55103 17.0418C9.05257 17.8981 8.26537 18.4524 6.93168 18.7146C5.72686 18.9511 4.66672 18.6358 4.66672 18.6358V21.9136L2.34766 21.1368ZM17.6316 8.91602L17.631 14.5371C17.9623 14.1111 18.9075 12.9951 20.2898 12.17C20.6078 11.9799 21.4418 11.6028 22.4758 11.8607L19.7725 14.8867L23.184 18.7146L20.3135 18.7195L17.631 15.5658V18.7409C17.631 18.7409 17.2517 18.8197 16.5964 18.8332C15.9411 18.846 15.6772 18.7146 15.5222 18.6095C15.3265 18.4762 15.2609 18.3314 15.2609 18.016V10.458C15.2609 10.458 15.2219 9.68061 15.9544 9.31268C16.2851 9.14643 16.8578 8.93007 17.6316 8.91602ZM11.2792 10.0443C11.2792 9.43736 11.8452 8.94474 12.5424 8.94474C13.2403 8.94474 13.8056 9.43736 13.8056 10.0443C13.8056 10.6512 13.2403 11.1432 12.5424 11.1432C11.8452 11.1432 11.2792 10.6512 11.2792 10.0443ZM13.7156 11.6682L13.715 18.7274C13.715 18.7274 13.3363 18.8063 12.6804 18.8197C12.0251 18.8332 11.7619 18.7012 11.6069 18.596C11.4111 18.4634 11.3455 18.3186 11.3455 18.0032V13.2102C11.3455 13.2102 11.3066 12.4328 12.0385 12.0649C12.3692 11.8986 12.9424 11.6823 13.7156 11.6682Z" fill="#1F1F1F"/>
</svg>
