<svg width="53" height="34" viewBox="0 0 53 34" fill="none" xmlns="http://www.w3.org/2000/svg">
<path d="M21.3493 8.23614L17.6533 13.4255H19.5343L23.0191 8.53476H28.2331V10.572C28.6159 10.864 29.0581 11.0764 29.5267 11.1892V2.90738C29.0581 3.02683 28.6159 3.23255 28.2331 3.52454V7.2341H23.1313C21.4417 7.2341 20.2141 6.25859 20.2141 4.57967C20.2141 2.98702 21.2635 2.01815 23.1313 2.01815H25.0453C25.0453 1.9717 25.0783 1.93188 25.1245 1.93188H25.1311C25.5469 1.41427 26.0815 0.996199 26.6887 0.724121H22.5571C19.8907 0.724121 18.1615 2.19069 18.1615 4.52658C17.9899 6.5174 19.3627 7.81143 21.3427 8.15651" fill="#E8B94D"/>
<path d="M30.3784 0.464844C27.1114 0.464844 24.7024 2.97328 24.2734 6.24487H25.7188C26.0554 3.65016 27.9562 1.82524 30.3586 1.82524C31.9888 1.82524 33.1108 2.50212 34.1404 3.55726L35.0842 2.52203C33.9028 1.32753 32.53 0.464844 30.3784 0.464844Z" fill="#E8B94D"/>
<path d="M34.2457 10.4655C33.1237 11.5936 32.0083 12.2838 30.3781 12.2838C28.4905 12.2838 27.0253 11.1557 26.2465 9.5166H24.7021C25.7845 12.7151 29.2363 14.4338 32.4175 13.3455C33.4999 12.9739 34.4569 12.3103 35.1829 11.4145L34.2457 10.4655Z" fill="#E8B94D"/>
<path d="M11.3768 23.5253H9.15258L10.2746 20.8445L11.3768 23.5253ZM9.64758 18.96L6.41357 26.7769H7.76658L8.59818 24.8193H12.116L12.8552 26.7769H14.2082L10.9742 18.96H9.64758Z" fill="#E8B94D"/>
<path d="M19.9041 23.0804C19.9041 24.5403 18.9669 25.4827 17.5149 25.4827H16.2477V20.5918H17.5281C18.8811 20.6781 19.9173 21.6138 19.9173 23.0738L19.9041 23.0804ZM17.8713 18.9594H14.9409V26.7767H17.7393C19.8315 26.8497 21.5871 25.204 21.6597 23.1003C21.6597 23.0339 21.6597 22.9676 21.6597 22.8946C21.6597 20.5122 19.9965 18.9395 17.7261 18.9395" fill="#E8B94D"/>
<path d="M43.7896 22.9017C43.7896 24.3683 42.76 25.4964 41.4664 25.4964C40.1728 25.4964 39.1432 24.3683 39.1432 22.9017C39.1432 21.4352 40.1728 20.307 41.4664 20.307C42.76 20.307 43.7896 21.4352 43.7896 22.9017ZM41.4664 18.9268C39.3148 18.9268 37.6846 20.6588 37.6846 22.9017C37.6846 25.1447 39.3148 26.8767 41.4664 26.8767C43.618 26.8767 45.2482 25.1447 45.2482 22.9017C45.2482 20.6588 43.618 18.9268 41.4664 18.9268Z" fill="#E8B94D"/>
<path d="M4.36108 21.6872C4.36108 22.3641 3.85948 22.8684 3.00808 22.8684H1.31848V20.5857H3.00808C3.84628 20.5924 4.36108 20.9308 4.36108 21.6872ZM6.05067 21.382C6.05067 19.8226 5.02108 18.96 3.29848 18.96H0.0380859V26.7769H1.33828V24.169H2.73088L4.34788 26.7769H6.23547L4.24228 23.9169C5.44348 23.4855 6.05067 22.7092 6.05067 21.4948" fill="#E8B94D"/>
<path d="M24.0158 18.96H22.7222V26.7769H24.0158V18.96Z" fill="#E8B94D"/>
<path d="M28.3982 22.2242C27.0188 21.8857 26.768 21.6203 26.768 21.096C26.768 20.5784 27.197 20.3196 27.89 20.3196C28.5896 20.366 29.2496 20.6381 29.7776 21.1026L29.8634 21.1889L30.6356 20.0607L30.5498 19.9745C29.7974 19.3573 28.8536 19.0189 27.8834 19.0255C26.4248 19.0255 25.3886 19.9745 25.3886 21.2752C25.3886 22.7418 26.2466 23.1732 27.7976 23.6112C29.0846 23.9496 29.3486 24.2151 29.3486 24.6464C29.3486 25.1641 28.9196 25.5091 28.1474 25.5091C27.329 25.5158 26.5436 25.1707 25.9958 24.5602L25.91 24.4739L25.0454 25.5091L25.1312 25.5954C25.9496 26.3652 27.0188 26.7966 28.1408 26.8032C29.771 26.8032 30.7214 25.8542 30.7214 24.4672C30.7214 23.3391 30.0482 22.6489 28.3982 22.2175" fill="#E8B94D"/>
<path d="M34.5893 22.2248C33.21 21.8863 32.9592 21.6209 32.9592 21.0967C32.9592 20.5791 33.3882 20.3203 34.0811 20.3203C34.7807 20.3667 35.4407 20.6388 35.9687 21.0967L36.0545 21.1829L36.8267 20.0548L36.7409 19.9686C35.9885 19.3514 35.0447 19.013 34.0745 19.0196C32.616 19.0196 31.5798 19.9686 31.5798 21.2692C31.5798 22.7357 32.4378 23.1671 33.9887 23.605C35.2757 23.9434 35.5397 24.2089 35.5397 24.6402C35.5397 25.1578 35.1107 25.5029 34.3385 25.5029C33.5201 25.5095 32.7348 25.1644 32.187 24.5539L32.1012 24.4677L31.2432 25.5029L31.329 25.5891C32.1474 26.3589 33.2166 26.7902 34.3385 26.7969C35.9687 26.7969 36.9191 25.8479 36.9191 24.461C36.9191 23.3329 36.2459 22.6428 34.5959 22.2115" fill="#E8B94D"/>
<path d="M51.2345 19.291V24.2285L47.8289 19.291H47.5055H46.377V26.7834H47.6705V21.7597L51.2345 26.7834H51.4787H52.5347V19.291H51.2345Z" fill="#E8B94D"/>
<path d="M49.2873 33.619H49.9341V30.8117L51.9603 33.619H52.5279V29.6967H51.8811V32.4177L49.8549 29.6967H49.2873V33.619ZM44.6541 33.0283C43.9083 33.0416 43.2879 32.4443 43.2747 31.6944C43.2747 31.6811 43.2747 31.6612 43.2747 31.6479C43.2285 30.9312 43.7631 30.314 44.4693 30.2675C44.5023 30.2675 44.5287 30.2675 44.5617 30.2675C45.3075 30.2542 45.9279 30.8515 45.9411 31.6014C45.9411 31.6147 45.9411 31.6346 45.9411 31.6479C45.9939 32.358 45.4593 32.9752 44.7531 33.0283C44.7201 33.0283 44.6871 33.0283 44.6541 33.0283ZM44.6541 33.6322C45.7761 33.6521 46.7001 32.7562 46.7133 31.628C46.7133 31.6081 46.7133 31.5815 46.7133 31.5616C46.7133 30.4135 45.7893 29.4844 44.6475 29.4844C43.5057 29.4844 42.5817 30.4135 42.5817 31.5616C42.5619 32.6898 43.4529 33.619 44.5749 33.6322C44.6079 33.6389 44.6277 33.6389 44.6541 33.6322ZM39.2421 33.6322H39.8889V29.6967H39.2421V33.6322ZM34.9389 33.6322H35.6781V30.3803H36.9717V29.7034H33.7377V30.3803H35.0313V33.6389L34.9389 33.6322ZM29.9427 33.6322C30.5631 33.6654 31.1571 33.4132 31.5729 32.9553L31.1439 32.5239C30.8601 32.8491 30.4575 33.0349 30.0219 33.0416C29.3091 33.0416 28.7349 32.4642 28.7283 31.7474C28.7283 31.7143 28.7283 31.6877 28.7283 31.6545C28.6821 30.9378 29.2167 30.3206 29.9229 30.2741C29.9559 30.2741 29.9823 30.2741 30.0153 30.2741C30.4443 30.2808 30.8535 30.4666 31.1373 30.7918L31.5663 30.2741C31.1637 29.856 30.5961 29.637 30.0153 29.6702C28.9989 29.5507 28.0815 30.2874 27.9627 31.3094C27.9561 31.3957 27.9495 31.482 27.9495 31.5683C27.8967 32.6567 28.7349 33.5858 29.8173 33.6389C29.8503 33.6389 29.8899 33.6389 29.9229 33.6389L29.9427 33.6322ZM22.7157 33.6455H25.6329V32.9752H23.3559V31.993H25.3161V31.3426H23.3559V30.3803H25.6263V29.7034H22.7223L22.7157 33.6455ZM17.5347 33.6455H20.1285V32.9752H18.1881V29.7034H17.5413L17.5347 33.6455ZM12.3471 33.6455H14.9409V32.9752H12.9939V29.7034H12.3471V33.6455ZM7.76667 33.0283C7.02087 33.0416 6.40047 32.4443 6.38727 31.6944C6.38727 31.6811 6.38727 31.6612 6.38727 31.6479C6.34107 30.9312 6.87567 30.314 7.58187 30.2675C7.61487 30.2675 7.64127 30.2675 7.67427 30.2675C8.42007 30.2542 9.04047 30.8515 9.05367 31.6014C9.05367 31.6147 9.05367 31.6346 9.05367 31.6479C9.10647 32.358 8.57187 32.9752 7.86567 33.0283C7.83267 33.0283 7.79967 33.0283 7.76667 33.0283ZM7.76667 33.6322C8.88867 33.6521 9.81267 32.7562 9.82587 31.628C9.82587 31.6081 9.82587 31.5815 9.82587 31.5616C9.82587 30.4135 8.90187 29.4844 7.76007 29.4844C6.61827 29.4844 5.69427 30.4135 5.69427 31.5616C5.67447 32.6898 6.56547 33.619 7.68747 33.6322C7.71387 33.6389 7.74027 33.6389 7.76667 33.6322ZM2.01147 33.6322C2.63187 33.6654 3.22587 33.4132 3.64167 32.9553L3.20607 32.5107C2.92227 32.8358 2.51967 33.0217 2.08407 33.0283C1.37127 33.0283 0.797065 32.4509 0.790465 31.7342C0.790465 31.701 0.790465 31.6744 0.790465 31.6413C0.744265 30.9245 1.27887 30.3073 1.98507 30.2609C2.01807 30.2609 2.04447 30.2609 2.07747 30.2609C2.50647 30.2675 2.91567 30.4533 3.19947 30.7785L3.62847 30.2609C3.22587 29.8428 2.65827 29.6237 2.07747 29.6569C0.955465 29.637 0.0314649 30.5263 0.00506494 31.6545C0.00506494 31.6811 0.00506494 31.7143 0.00506494 31.7408C-0.0741351 32.7628 0.783866 33.6322 1.99167 33.6322" fill="#E8B94D"/>
</svg>
