<svg width="24" height="25" viewBox="0 0 24 25" fill="none" xmlns="http://www.w3.org/2000/svg">
<g clip-path="url(#clip0)">
<path d="M24 4.74844C23.1075 5.15625 22.1565 5.42656 21.165 5.55781C22.185 4.92344 22.9635 3.92656 23.3295 2.725C22.3785 3.31562 21.3285 3.73281 20.2095 3.96563C19.3065 2.96406 18.0195 2.34375 16.6155 2.34375C13.8915 2.34375 11.6985 4.64688 11.6985 7.47031C11.6985 7.87656 11.7315 8.26719 11.8125 8.63906C7.722 8.43125 4.1025 6.38906 1.671 3.27813C1.2465 4.04531 0.9975 4.92344 0.9975 5.86875C0.9975 7.64375 1.875 9.21719 3.183 10.1281C2.3925 10.1125 1.617 9.87344 0.96 9.49688C0.96 9.5125 0.96 9.53281 0.96 9.55312C0.96 12.0437 2.6655 14.1125 4.902 14.5891C4.5015 14.7031 4.065 14.7578 3.612 14.7578C3.297 14.7578 2.979 14.7391 2.6805 14.6703C3.318 16.7 5.127 18.1922 7.278 18.2406C5.604 19.6047 3.4785 20.4266 1.1775 20.4266C0.774 20.4266 0.387 20.4078 0 20.3562C2.1795 21.8203 4.7625 22.6562 7.548 22.6562C16.602 22.6562 21.552 14.8438 21.552 8.07187C21.552 7.84531 21.5445 7.62656 21.534 7.40938C22.5105 6.6875 23.331 5.78594 24 4.74844Z" fill="#E8B94D"/>
</g>
<defs>
<clipPath id="clip0">
<rect width="24" height="25" fill="white"/>
</clipPath>
</defs>
</svg>
