<svg id="Layer_1" data-name="Layer 1" xmlns="http://www.w3.org/2000/svg" width="68.09mm" height="20.46mm" viewBox="0 0 193 58"><defs><style>.cls-1{fill:#e8b94d;}.cls-2{fill:#353535;}</style></defs><path class="cls-1" d="M187.63,24.81a6.48,6.48,0,0,0,1.26-8.63c-4.6-6.88-9.95-7.71-15.07-5.79A6.56,6.56,0,0,0,167,2.92c-3.09,0-6.62,1.82-7.78,4.69-1-5.93-8.24-7.12-12.61-3.44a8.26,8.26,0,0,0-4.37,1.09,7.1,7.1,0,0,0-3.37,3.61,9.25,9.25,0,0,0-3,.22c.18-3.94-2.59-6.91-6.88-7-4-.07-8.25,2.94-8.31,7a14.51,14.51,0,0,0-10,1.29c1.71-6.4-4.8-10.22-10.39-7.59a7.21,7.21,0,0,0-2.44,1.63,7,7,0,0,0-1.59,2.47c-.71,1.91-1.37,3.85-2,5.82-3.91-5-11.34-3.84-15.68.18C75.65,8.8,69.47,8.56,65.38,11A8.43,8.43,0,0,0,57,9.19c-3.8-1.69-9.5.65-10.9,4.24a7.81,7.81,0,0,0-1.53-1.14c-3.2-2-6.84-.48-9,1.16l-.24.17C22.87-2-3.43,14.62,6,32.43c3.9,6.42,12.25,6.51,17.68,1.84-1.29,3.77-4,6.8-7.16,7.74a9.8,9.8,0,0,0-3.89,1.75c-3.39,2.21-5.31,6-3.29,9.51a6.51,6.51,0,0,0,7.17,2.89C25.58,54,34,46.76,38,38a7,7,0,0,0,3.83-.43A13,13,0,0,0,43.17,37c1.81,3.47,6,4.25,9.46,3,0,.2,0,.4,0,.6h0a4.88,4.88,0,0,0,4.88,4.88H164.24a4.88,4.88,0,0,0,4.88-4.88h0A5.42,5.42,0,0,0,169,39.4c4,2.34,9,1.64,12.93-1.11a33.66,33.66,0,0,0,5.14-4.4,6.4,6.4,0,0,0,.36-8.87Z"/><path class="cls-2" d="M59.77,12.59a2.2,2.2,0,0,1,1.4.43,1.61,1.61,0,0,1,.43.63,1.59,1.59,0,0,1,.1.75,7.51,7.51,0,0,1-.3,2c-.2.72-.47,1.56-.83,2.54l-.47,1.33a1.69,1.69,0,0,1-.41.61,1.81,1.81,0,0,1-.62.41,3.55,3.55,0,0,1-1.6.41,1.13,1.13,0,0,1-.75-.21.49.49,0,0,1-.16-.29.51.51,0,0,1,0-.32c.39-1.19.79-2.5,1.19-3.94.09-.66.16-1.09.2-1.3l-.13.12A24.07,24.07,0,0,0,53.17,21,71.8,71.8,0,0,0,52,31.16a1.41,1.41,0,0,1-.28.64,1.49,1.49,0,0,1-.57.42,3.42,3.42,0,0,1-1.68.46,1.52,1.52,0,0,1-.83-.22.64.64,0,0,1-.25-.29.71.71,0,0,1,0-.38,75.85,75.85,0,0,1,1-8.89.66.66,0,0,1-.23-.21.63.63,0,0,1-.1-.29.9.9,0,0,1,.13-.42l.5-.79c.49-2.43,1.09-4.88,1.8-7.33a1.85,1.85,0,0,1,.42-.61,1.8,1.8,0,0,1,.63-.39,3.81,3.81,0,0,1,1.68-.43,1.3,1.3,0,0,1,.77.19.44.44,0,0,1,.17.26.41.41,0,0,1,0,.31c-.35,1.19-.58,2-.66,2.35A12.55,12.55,0,0,1,58,13a5.1,5.1,0,0,1,1.77-.38Z"/><path class="cls-2" d="M76,18.37a6.56,6.56,0,0,1,.65,2.88,8.67,8.67,0,0,1-1.33,4.45,15.85,15.85,0,0,1-2.63,3.2,17.5,17.5,0,0,1-3.85,2.84,8.37,8.37,0,0,1-4,1.16,5.05,5.05,0,0,1-2.26-.51,4.33,4.33,0,0,1-2.27-4.22,13.3,13.3,0,0,1,1-4.81,26,26,0,0,1,2.2-4.42q2.84-4.29,6-5.4a5.6,5.6,0,0,1,1.86-.32,3.43,3.43,0,0,1,2,.56,2.3,2.3,0,0,1,.66.76,2.35,2.35,0,0,1,.27,1v.13a1,1,0,0,1-.07.28A7.78,7.78,0,0,1,76,18.37Zm-6.91-2A11.94,11.94,0,0,0,67,18.56a16.87,16.87,0,0,0-2.1,3.9,15.73,15.73,0,0,0-.63,2.33,14.2,14.2,0,0,0-.3,2.75,4.81,4.81,0,0,0,.38,2.08,1.3,1.3,0,0,0,.51.58,1.21,1.21,0,0,0,.74.19,3.38,3.38,0,0,0,1.63-.53,14.5,14.5,0,0,0,4.27-3.56,7.28,7.28,0,0,0,1.7-4.63C73.23,19.42,71.85,17.66,69.1,16.37Z"/><path class="cls-2" d="M91.84,18.37a6.7,6.7,0,0,1,.65,2.88,8.78,8.78,0,0,1-1.34,4.45,15.52,15.52,0,0,1-2.63,3.2,17.26,17.26,0,0,1-3.85,2.84,8.36,8.36,0,0,1-4,1.16,5.09,5.09,0,0,1-2.27-.51,4.31,4.31,0,0,1-2.26-4.22,13.3,13.3,0,0,1,1-4.81,25.29,25.29,0,0,1,2.2-4.42q2.82-4.29,6-5.4a5.65,5.65,0,0,1,1.87-.32,3.42,3.42,0,0,1,2,.56,2.19,2.19,0,0,1,.66.76,2.36,2.36,0,0,1,.28,1v.13a1,1,0,0,1-.07.28,7.93,7.93,0,0,1,1.85,2.45Zm-6.92-2a12.22,12.22,0,0,0-2.06,2.19,16.5,16.5,0,0,0-2.1,3.9,14.62,14.62,0,0,0-.64,2.33,14.2,14.2,0,0,0-.3,2.75,4.81,4.81,0,0,0,.39,2.08,1.28,1.28,0,0,0,.5.58,1.22,1.22,0,0,0,.75.19,3.38,3.38,0,0,0,1.63-.53,14.34,14.34,0,0,0,4.26-3.56,7.28,7.28,0,0,0,1.7-4.63C89.05,19.42,87.68,17.66,84.92,16.37Z"/><path class="cls-2" d="M105.78,25.35a4.22,4.22,0,0,1,1-.13c.82,0,1.23.2,1.23.61a1,1,0,0,1-.33.63l-.74.84-.59.72a26.57,26.57,0,0,1-2.64,2.87A7,7,0,0,1,101,32.43a5.55,5.55,0,0,1-1.56.22A3.87,3.87,0,0,1,97,31.89a3.07,3.07,0,0,1-.8-1,3.2,3.2,0,0,1-.35-1.24,8.86,8.86,0,0,1-.06-1.26,14.65,14.65,0,0,1,.4-3.37c.26-1.14.65-2.57,1.17-4.28l.4-1.37-1.27.13c-.62,0-1.47.13-2.53.25a1.75,1.75,0,0,1-1.17-.15.86.86,0,0,1-.29-.28.77.77,0,0,1-.11-.39,1.34,1.34,0,0,1,.14-.52A1.53,1.53,0,0,1,92.9,18a2,2,0,0,1,1.25-.52l4.3-.48q1.47-5.14,3.3-10.09a1.59,1.59,0,0,1,.91-.78,3.65,3.65,0,0,1,1.45-.33,1.38,1.38,0,0,1,.72.16.49.49,0,0,1,.28.47,2,2,0,0,1-.06.35q-1.93,5.18-3.23,9.87c1.55-.14,2.58-.22,3.1-.22s1,.18,1,.54a1.44,1.44,0,0,1-.18.54,1.57,1.57,0,0,1-.38.43,2.56,2.56,0,0,1-1.17.65c-1.34.21-2.33.36-3,.44-.38,1.44-.71,2.85-1,4.23-.05.17-.2.78-.47,1.85a12.67,12.67,0,0,0-.4,3c0,1.21.34,1.86,1,2a1.85,1.85,0,0,0,1.45-.68,31.14,31.14,0,0,0,2.12-2.33,14.18,14.18,0,0,1,1.2-1.37,1.55,1.55,0,0,1,.73-.35Z"/><path class="cls-2" d="M114.26,19.86a6,6,0,0,0,1.58,1.56c.82.54,1.66,1,2.53,1.49A20.46,20.46,0,0,1,121.68,25a4.47,4.47,0,0,1,1.52,2.38,6,6,0,0,1,.14.93,3.33,3.33,0,0,1-2.47,3.19,15.28,15.28,0,0,1-5.6,1,12,12,0,0,1-2.16-.16,8.69,8.69,0,0,1-2.28-.74,6.41,6.41,0,0,1-2-1.37,2.58,2.58,0,0,1-.56-.75,2.43,2.43,0,0,1-.22-.91c0-.89.72-1.71,2.16-2.45a2.65,2.65,0,0,1,1.17-.28,1.58,1.58,0,0,1,.88.22.67.67,0,0,1,.25.22.63.63,0,0,1,.1.32q0,.57-1,1.11a.33.33,0,0,0-.15.11.35.35,0,0,0,0,.18c0,.25.21.56.63.92a6.57,6.57,0,0,0,1,.73,8,8,0,0,0,3.2.66,7.23,7.23,0,0,0,.93,0,4.12,4.12,0,0,0,1.93-.38,1.21,1.21,0,0,0,.55-.59,1.23,1.23,0,0,0,.09-.8c-.09-.91-1.06-1.94-2.9-3.08l-1.27-.76q-1.73-1-2.85-1.8a7.89,7.89,0,0,1-1.91-1.87,4,4,0,0,1-.8-2.46,4.53,4.53,0,0,1,.33-1.71,5.8,5.8,0,0,1,2.73-3.19,8.53,8.53,0,0,1,4.3-1.13,6.68,6.68,0,0,1,4,1.14,3.79,3.79,0,0,1,1.23,1.41,3.76,3.76,0,0,1,.39,1.83,5.8,5.8,0,0,1-.2,1.43,1.6,1.6,0,0,1-.39.6,1.58,1.58,0,0,1-.62.38,3.68,3.68,0,0,1-1.63.41,1.17,1.17,0,0,1-.72-.19.41.41,0,0,1-.15-.25.42.42,0,0,1,0-.29,4.61,4.61,0,0,0,.2-1.33,2.79,2.79,0,0,0-.57-1.78,3,3,0,0,0-1.67-1,4.45,4.45,0,0,0-.89-.13,2.67,2.67,0,0,0-1.09.2,2.51,2.51,0,0,0-.93.61,3,3,0,0,0-.63,1,2.88,2.88,0,0,0-.18,1.16A3.53,3.53,0,0,0,114.26,19.86Z"/><path class="cls-2" d="M139.29,21.19a8.66,8.66,0,0,1-.43,2.47l-.3,1.08c-.33,1.15-.66,2.32-1,3.53s-.59,2.32-.79,3.36a1.59,1.59,0,0,1-.32.6,1.43,1.43,0,0,1-.56.38,3.36,3.36,0,0,1-1.58.42,1.38,1.38,0,0,1-.77-.19.61.61,0,0,1-.19-.26.58.58,0,0,1,0-.32q.4-2,1.54-5.93l.73-2.64a8.07,8.07,0,0,0,.33-1.84,1.25,1.25,0,0,0-.17-.7,1.48,1.48,0,0,0-.57-.45,1.52,1.52,0,0,0-.73-.12,6.61,6.61,0,0,0-2,.42,19.91,19.91,0,0,0-3.73,1.61l-.6,8.06c0,.41-.31.76-.85,1a3.4,3.4,0,0,1-1.65.45,1.4,1.4,0,0,1-.82-.21.79.79,0,0,1-.21-.27.69.69,0,0,1,0-.35c.27-3,.46-5.26.57-6.76a2.14,2.14,0,0,1-.83-.19.46.46,0,0,1-.24-.17A.52.52,0,0,1,124,24a1.25,1.25,0,0,1,.18-.5,1.12,1.12,0,0,1,.36-.39,9.63,9.63,0,0,0,.83-.73c.47-5.5.85-10.51,1.17-15,0-.38.3-.72.85-1A3.38,3.38,0,0,1,129,5.89a1.35,1.35,0,0,1,.78.19.64.64,0,0,1,.21.25.58.58,0,0,1,0,.32q-.54,6.23-1,12.47,3.83-3.36,7.43-6.06a2,2,0,0,1,.75-.33,3.72,3.72,0,0,1,.88-.11,2.08,2.08,0,0,1,.82.14.45.45,0,0,1,.22.16.44.44,0,0,1,.09.27,1.12,1.12,0,0,1-.17.46,1.26,1.26,0,0,1-.36.33l-3.3,2.83-2.13,1.84A11.46,11.46,0,0,1,136,18.2a3.65,3.65,0,0,1,2.1.58A2.64,2.64,0,0,1,139.29,21.19Z"/><path class="cls-2" d="M145.89,20.78c-.13.85-.38,2.37-.75,4.59s-.67,4.21-.92,6a1.37,1.37,0,0,1-.32.62,1.43,1.43,0,0,1-.56.41,3.15,3.15,0,0,1-1.58.43,1.31,1.31,0,0,1-.82-.21.6.6,0,0,1-.2-.27.66.66,0,0,1,0-.34q.57-3.18,1.22-7.26c.43-2.71.74-4.66.92-5.82l.7-4.35a1.44,1.44,0,0,1,.34-.6,1.4,1.4,0,0,1,.57-.38,3.5,3.5,0,0,1,1.58-.41,1.21,1.21,0,0,1,.74.19.46.46,0,0,1,.18.23.55.55,0,0,1,0,.31ZM146.46,8a2.38,2.38,0,0,0-1.3.35c-.49.25-.77.5-.84.76-.29,1-.47,1.65-.56,2v.09a.42.42,0,0,0,.13.3.9.9,0,0,0,.3.21,1.38,1.38,0,0,0,.6.13,3.54,3.54,0,0,0,1.28-.31,1.44,1.44,0,0,0,.58-.32,1.6,1.6,0,0,0,.41-.52c.13-.36.32-1,.56-1.9V8.66a.53.53,0,0,0-.13-.34,1.1,1.1,0,0,0-.3-.27,3,3,0,0,0-.73-.09Z"/><path class="cls-2" d="M150.87,6.29a3.5,3.5,0,0,1,1.62-.43,1.35,1.35,0,0,1,.76.19.66.66,0,0,1,.24.61q-1,8.28-2,16.56l-1,8.29a1.49,1.49,0,0,1-.31.63,1.37,1.37,0,0,1-.58.41,3.51,3.51,0,0,1-1.67.45c-.76,0-1.1-.28-1-.83l1.56-12.44Q149.51,11,150,7.32a1.39,1.39,0,0,1,.89-1Z"/><path class="cls-2" d="M165.41,7.15A3.34,3.34,0,0,1,167,6.72c.69,0,1,.24,1,.73a198.32,198.32,0,0,1-2.39,21.61c.35.17.53.39.53.67s-.27.62-.8.92l-.2,1.17a1.53,1.53,0,0,1-.36.63,1.62,1.62,0,0,1-.59.4,3.27,3.27,0,0,1-1.62.43,1.33,1.33,0,0,1-.8-.2.56.56,0,0,1-.2-.28.5.5,0,0,1,0-.34.54.54,0,0,1,0-.22,13.23,13.23,0,0,1-3.53.63,5.92,5.92,0,0,1-2.77-.63,3.87,3.87,0,0,1-1.8-1.75,5.7,5.7,0,0,1-.56-2.57,9.47,9.47,0,0,1,.13-1.4,13.53,13.53,0,0,1,2-4.95,13,13,0,0,1,3.86-3.9,9.65,9.65,0,0,1,5-1.62q.39-4.35.56-7.9C164.6,7.77,164.88,7.43,165.41,7.15Zm-6.26,23.34a8.21,8.21,0,0,0,3-.73q1.06-5.86,1.67-11.55h-.07a5.19,5.19,0,0,0-3.29,1.17,9.7,9.7,0,0,0-2.49,2.92,12.36,12.36,0,0,0-1.34,3.46,7.38,7.38,0,0,0-.17,1.56,3.14,3.14,0,0,0,1.1,2.69,2.57,2.57,0,0,0,1.63.48Z"/><path class="cls-2" d="M178.27,13.29c2.13,0,4.07,1.36,5.8,4.09a.53.53,0,0,1,.1.32.94.94,0,0,1-.16.42,1,1,0,0,1-.31.31,2.48,2.48,0,0,1-.93.6q-3.33,1.41-9.26,3.34a16.15,16.15,0,0,0-.34,3.33,10.3,10.3,0,0,0,0,1.14,6,6,0,0,0,.6,2.48,2.38,2.38,0,0,0,.48.66,2.73,2.73,0,0,0,.48.42.66.66,0,0,0,.34.06,1.57,1.57,0,0,0,.55-.13,6.67,6.67,0,0,0,.71-.35,11.68,11.68,0,0,0,1.8-1.23c.55-.47,1.22-1.07,2-1.81a2.24,2.24,0,0,1,1.56-.45,2.53,2.53,0,0,1,1,.18c.28.11.42.28.42.49a1,1,0,0,1-.34.64,28,28,0,0,1-4.23,3.61,7.6,7.6,0,0,1-4.33,1.5,4.6,4.6,0,0,1-1.93-.42,4.16,4.16,0,0,1-2.17-2.12,8.26,8.26,0,0,1-.66-3.43,17.27,17.27,0,0,1,.4-3.43l-.27.07-.27.09a3,3,0,0,1-.8.16,1.13,1.13,0,0,1-.73-.22.86.86,0,0,1-.2-.26.82.82,0,0,1-.07-.31,1.21,1.21,0,0,1,.36-.81,2.42,2.42,0,0,1,1-.65l1.64-.61q.3-.88.9-2.31a12.24,12.24,0,0,1,2.33-3.4,6.44,6.44,0,0,1,3.29-1.84A4.92,4.92,0,0,1,178.27,13.29Zm-4,6.38c2.18-.78,4.14-1.44,5.9-2a6.08,6.08,0,0,0-2.24-2,1.69,1.69,0,0,0-.44-.12l-.25,0s0,0-.06.07a.32.32,0,0,1-.14,0,8.55,8.55,0,0,0-2.77,4Z"/><path class="cls-2" d="M29.77,15.37c-5.3-4.39-13.22-2.76-17.32,2.87-2.08,2.86-2.95,7.83-.84,10.94s5.6,2.39,8.28.5,5-5.76,2.59-9.08c-1.8-2.46-4.83-2.66-7.42-1.83a6,6,0,0,1,1.34-2.24c1.84-1.84,5.46-.83,7.46.23,5.46,2.89,7.91,9.91,6.75,16.18A18.63,18.63,0,0,1,18.12,47.36a6.31,6.31,0,0,0-2.91,1.83c-.47.63-.49,1.18.45.86,7-2.38,14-6.94,17.43-14.23C36.3,29,35.64,20.22,29.77,15.37Z"/><path class="cls-2" d="M39.17,21.11A1.57,1.57,0,0,0,40.1,21,6.5,6.5,0,0,0,42,19.94a2.34,2.34,0,0,0,.62-.74,2.22,2.22,0,0,0,.27-.93,1.25,1.25,0,0,0-.05-.58,1.34,1.34,0,0,0-.3-.5,1,1,0,0,0-.5-.25c-.07-.44-1.36.14-1.52.22a6.37,6.37,0,0,0-1.29.81c-.22.18-.58.44-.63.73,0,0,0,.05,0,.08a1.34,1.34,0,0,0-.07.18,2.59,2.59,0,0,0,0,1C38.6,20.48,38.76,21,39.17,21.11Z"/><path class="cls-2" d="M43.24,28.06c-.05-.47-.13-1.24-.64-1.46a1.52,1.52,0,0,0-1,.1,6.5,6.5,0,0,0-1.93,1.06,2.62,2.62,0,0,0-.7.85,2.32,2.32,0,0,0-.23,1.07,3.91,3.91,0,0,0,.12,1,5.63,5.63,0,0,0,0,.58c.1.74.82.62,1.38.44A5.41,5.41,0,0,0,43,29.83,2.66,2.66,0,0,0,43.24,28.06Z"/><path class="cls-2" d="M67.78,37.84h1l.09.55h0a1.85,1.85,0,0,1,.58-.46,1.64,1.64,0,0,1,.72-.19,1.16,1.16,0,0,1,.7.17,1.22,1.22,0,0,1,.48.55A1.93,1.93,0,0,1,72,38a2,2,0,0,1,.75-.21c.92,0,1.33.65,1.33,1.72v2.65H72.82V39.62c0-.61-.17-.81-.53-.81a1.25,1.25,0,0,0-.41.14,1.06,1.06,0,0,0-.32.28v2.88H70.3V39.62c0-.61-.17-.81-.53-.81a1.12,1.12,0,0,0-.73.42v2.88H67.78Z"/><path class="cls-2" d="M76.84,40.49V37.84H78.1v2.49c0,.61.17.81.53.81a.9.9,0,0,0,.45-.13.85.85,0,0,0,.31-.34V37.84h1.27v4.27h-1l-.09-.59h0a1.67,1.67,0,0,1-.58.51,1.82,1.82,0,0,1-.76.19C77.23,42.21,76.84,41.56,76.84,40.49Z"/><path class="cls-2" d="M83.11,41.62l.57-.79a1.89,1.89,0,0,0,1.1.45c.38,0,.54-.15.54-.37s-.42-.41-.86-.58-1.13-.55-1.13-1.26S84,37.73,85,37.73a2.51,2.51,0,0,1,1.51.54L85.9,39a1.59,1.59,0,0,0-.9-.36c-.33,0-.49.13-.49.34s.4.38.84.54,1.16.5,1.16,1.28-.62,1.38-1.76,1.38a2.72,2.72,0,0,1-1.64-.59Z"/><path class="cls-2" d="M88.93,36.55a.71.71,0,0,1,.08-.43.73.73,0,0,1,.75-.37.74.74,0,0,1,.39.18.77.77,0,0,1,.2.81.72.72,0,0,1-.28.34.87.87,0,0,1-.69.1.79.79,0,0,1-.23-.14.57.57,0,0,1-.16-.22.63.63,0,0,1-.06-.27ZM89,37.84h1.27v4.27H89Z"/><path class="cls-2" d="M92.87,40a2.13,2.13,0,0,1,.15-.87,2,2,0,0,1,.48-.74,2.23,2.23,0,0,1,.73-.49,2.34,2.34,0,0,1,.87-.15,1.91,1.91,0,0,1,1.25.46l-.6.82a.79.79,0,0,0-.58-.25c-.61,0-1,.48-1,1.22s.41,1.21,1,1.21a1.25,1.25,0,0,0,.77-.31l.49.83a2.12,2.12,0,0,1-1.41.5A2.05,2.05,0,0,1,92.87,40Z"/><path class="cls-2" d="M108.85,37.89l.63,0h2v1h-2.6Zm.56-.27A1.46,1.46,0,0,1,111,36a2.24,2.24,0,0,1,.85.15l-.23.93a1.12,1.12,0,0,0-.44-.09c-.31,0-.49.17-.49.61v4.53h-1.26Z"/><path class="cls-2" d="M113.6,40a2.11,2.11,0,0,1,.11-.83,2.19,2.19,0,0,1,.43-.72,2,2,0,0,1,.67-.5,2,2,0,0,1,.81-.19,1.8,1.8,0,0,1,1.82,2,3.64,3.64,0,0,1,0,.56h-2.56a1,1,0,0,0,1.11.9,1.75,1.75,0,0,0,.92-.28l.42.76a2.75,2.75,0,0,1-1.52.49,2.06,2.06,0,0,1-.85-.15,2.13,2.13,0,0,1-.73-.49,2.1,2.1,0,0,1-.58-1.6Zm2.76-.47c0-.47-.21-.81-.71-.81a.84.84,0,0,0-.58.24.86.86,0,0,0-.25.57Z"/><path class="cls-2" d="M119.65,41.62l.57-.79a1.89,1.89,0,0,0,1.11.45c.37,0,.54-.15.54-.37s-.43-.41-.87-.58-1.13-.55-1.13-1.26.65-1.34,1.63-1.34a2.51,2.51,0,0,1,1.51.54l-.57.76a1.53,1.53,0,0,0-.9-.36c-.32,0-.48.13-.48.34s.4.38.84.54,1.15.5,1.15,1.28-.61,1.38-1.75,1.38A2.75,2.75,0,0,1,119.65,41.62Z"/><path class="cls-2" d="M125.74,40.56V38.83h-.58v-.94l.65,0,.15-1.13H127v1.13h1v1h-1v1.71c0,.49.22.68.55.68a1.1,1.1,0,0,0,.4-.08l.2.92a3,3,0,0,1-1,.16C126.16,42.21,125.74,41.55,125.74,40.56Z"/><path class="cls-2" d="M130.49,36.55a.8.8,0,0,1,.09-.43.75.75,0,0,1,.31-.3.7.7,0,0,1,.43-.07.73.73,0,0,1,.4.18.77.77,0,0,1,.22.38.79.79,0,0,1,0,.43.74.74,0,0,1-.69.47.63.63,0,0,1-.27,0,.72.72,0,0,1-.24-.14.69.69,0,0,1-.16-.22.63.63,0,0,1-.06-.27Zm.1,1.29h1.26v4.27h-1.26Z"/><path class="cls-2" d="M134.23,37.84h1.27l.56,2c.11.42.22.86.33,1.31h0c.11-.45.22-.89.33-1.31l.55-2h1.22l-1.4,4.27h-1.46Z"/><path class="cls-2" d="M140.71,40.93c0-.9.72-1.39,2.41-1.57a.53.53,0,0,0-.05-.25.5.5,0,0,0-.37-.34.54.54,0,0,0-.25,0,2.35,2.35,0,0,0-1.13.39l-.45-.83a3.36,3.36,0,0,1,1.82-.56c1.09,0,1.7.62,1.7,1.93v2.44h-1l-.09-.44h0a1.86,1.86,0,0,1-1.24.54,1.22,1.22,0,0,1-.5-.08,1.34,1.34,0,0,1-.42-.28,1.39,1.39,0,0,1-.28-.43,1.33,1.33,0,0,1-.08-.49Zm2.41-.06v-.75c-.9.12-1.19.38-1.19.71s.19.41.48.41a1.14,1.14,0,0,0,.4-.11.86.86,0,0,0,.31-.26Z"/><path class="cls-2" d="M147.17,40.78v-4.7h1.26v4.75c0,.27.13.36.23.36a.42.42,0,0,0,.16,0l.15.93a1.71,1.71,0,0,1-.63.11C147.47,42.21,147.17,41.65,147.17,40.78Z"/></svg>