<svg width="18" height="18" viewBox="0 0 18 18" fill="none" xmlns="http://www.w3.org/2000/svg">
<g clip-path="url(#clip0)">
<path d="M8.69496 15.5953C8.69496 16.4209 8.02569 17.0902 7.2001 17.0902C6.37451 17.0902 5.70525 16.4209 5.70525 15.5953C5.70525 14.7697 6.37452 14.1004 7.20011 14.1004C8.0257 14.1004 8.69496 14.7697 8.69496 15.5953ZM13.2529 14.1004C12.4273 14.1004 11.758 14.7697 11.758 15.5953C11.758 16.4209 12.4273 17.0902 13.2529 17.0902C14.0785 17.0902 14.7477 16.4209 14.7477 15.5953C14.7477 14.7697 14.0785 14.1004 13.2529 14.1004ZM17.893 7.08296L16.0536 12.55C16.0536 12.55 15.9014 13.3613 15.1256 13.3613C14.3498 13.3613 6.76331 13.3613 5.8375 13.3613C4.9117 13.3613 4.87279 12.3444 4.87279 12.3444C4.87279 12.3444 3.88586 5.0224 3.83695 4.58005C3.78805 4.13771 3.22234 3.80984 3.22234 3.80984L0.788338 2.67287C-0.54425 1.97601 0.0614694 0.650087 0.788338 0.954618C3.87474 2.41057 5.30847 3.12744 5.40072 3.70092C5.49408 4.27552 5.65634 5.65924 5.65634 5.65924V5.66813C5.67524 5.66257 5.68857 5.65924 5.68857 5.65924C5.68857 5.65924 15.1534 5.65924 17.065 5.65924C18.4387 5.65924 17.893 7.08519 17.893 7.08296ZM15.2323 10.1271L15.2134 10.1282H6.20872L6.39432 11.5998H14.7944L15.2323 10.1271ZM16.1092 7.15965H5.83639L6.03423 8.73231C8.00476 8.73231 13.7752 8.73231 15.6446 8.73231L16.1092 7.15965Z" fill="#E8B94D"/>
</g>
<defs>
<clipPath id="clip0">
<rect width="18" height="18" fill="white"/>
</clipPath>
</defs>
</svg>
